<?xml version="1.0" encoding="UTF-8" standalone="no"?>
<!DOCTYPE svg PUBLIC "-//W3C//DTD SVG 1.1//EN" "http://www.w3.org/Graphics/SVG/1.1/DTD/svg11.dtd">
<svg width="100%" height="100%" viewBox="0 0 930 208" version="1.1" xmlns="http://www.w3.org/2000/svg" xmlns:xlink="http://www.w3.org/1999/xlink" xml:space="preserve" xmlns:serif="http://www.serif.com/" style="fill-rule:evenodd;clip-rule:evenodd;stroke-miterlimit:10;">
    <g transform="matrix(4.16667,0,0,4.16667,-44.0349,-604.033)">
        <g>
            <text x="77.411px" y="183.56px" style="font-family:'Avenir-Medium', 'Avenir';font-weight:500;font-size:9.85px;fill:rgb(38,39,38);">D <tspan x="87.667px 90.406px 93.363px 101.026px 103.984px 106.722px 109.679px " y="183.56px 183.56px 183.56px 183.56px 183.56px 183.56px 183.56px ">I G I T</tspan></text>
            <text x="117.331px" y="183.56px" style="font-family:'Avenir-Medium', 'Avenir';font-weight:500;font-size:9.85px;fill:rgb(38,39,38);">A <tspan x="127.223px " y="183.56px ">L</tspan></text>
            <text x="141.048px" y="183.56px" style="font-family:'Avenir-Medium', 'Avenir';font-weight:500;font-size:9.85px;fill:rgb(38,39,38);">C <tspan x="150.939px 159.135px 162.092px 169.933px 172.89px 178.367px 181.324px 188.258px 191.216px " y="183.56px 183.56px 183.56px 183.56px 183.56px 183.56px 183.56px 183.56px 183.56px ">O N S U L</tspan></text>
            <text x="198.326px" y="183.56px" style="font-family:'Avenir-Medium', 'Avenir';font-weight:500;font-size:9.85px;fill:rgb(38,39,38);">T <tspan x="206.937px 209.676px 212.633px 220.474px 223.431px " y="183.56px 183.56px 183.56px 183.56px 183.56px ">I N G</tspan></text>
        </g>
    </g>
    <g transform="matrix(6.71445,0,0,6.71445,-239.389,-1135.64)">
        <path d="M81.595,178.314C81.449,178.101 81.252,177.945 81.007,177.846C80.761,177.747 80.503,177.698 80.231,177.698C80.07,177.698 79.914,177.716 79.764,177.753C79.613,177.789 79.478,177.848 79.357,177.929C79.236,178.009 79.139,178.114 79.065,178.242C78.992,178.371 78.955,178.523 78.955,178.699C78.955,178.963 79.047,179.164 79.23,179.304C79.414,179.443 79.641,179.564 79.912,179.667C80.184,179.769 80.481,179.868 80.803,179.964C81.126,180.059 81.423,180.191 81.694,180.36C81.966,180.528 82.193,180.752 82.376,181.031C82.56,181.309 82.651,181.68 82.651,182.142C82.651,182.56 82.574,182.925 82.42,183.236C82.266,183.548 82.059,183.806 81.799,184.012C81.538,184.217 81.236,184.371 80.891,184.474C80.547,184.576 80.184,184.628 79.802,184.628C79.318,184.628 78.853,184.547 78.405,184.386C77.958,184.224 77.573,183.953 77.25,183.572L78.295,182.56C78.464,182.816 78.686,183.016 78.961,183.159C79.236,183.302 79.527,183.374 79.835,183.374C79.997,183.374 80.158,183.352 80.319,183.308C80.481,183.264 80.627,183.198 80.759,183.11C80.891,183.022 80.998,182.91 81.078,182.774C81.159,182.639 81.199,182.483 81.199,182.307C81.199,182.021 81.108,181.801 80.924,181.647C80.741,181.493 80.514,181.363 80.242,181.256C79.971,181.15 79.674,181.049 79.351,180.954C79.029,180.858 78.732,180.728 78.46,180.563C78.189,180.398 77.962,180.178 77.778,179.903C77.595,179.628 77.503,179.26 77.503,178.798C77.503,178.394 77.586,178.046 77.751,177.753C77.916,177.459 78.132,177.216 78.4,177.021C78.667,176.827 78.974,176.682 79.318,176.587C79.663,176.491 80.015,176.444 80.374,176.444C80.785,176.444 81.183,176.506 81.568,176.631C81.953,176.755 82.299,176.961 82.607,177.247L81.595,178.314Z" style="fill:rgb(39,38,38);fill-rule:nonzero;"/>
        <rect x="88.129" y="176.642" width="1.386" height="7.788" style="fill:rgb(39,38,38);fill-rule:nonzero;"/>
        <path d="M95.323,176.642L97.435,176.642L99.514,182.098L101.615,176.642L103.705,176.642L103.705,184.43L102.385,184.43L102.385,177.962L102.363,177.962L99.998,184.43L99.03,184.43L96.665,177.962L96.643,177.962L96.643,184.43L95.323,184.43L95.323,176.642Z" style="fill:rgb(39,38,38);fill-rule:nonzero;"/>
        <path d="M109.546,176.642L112.164,176.642C112.538,176.642 112.899,176.678 113.248,176.752C113.596,176.825 113.902,176.948 114.166,177.12C114.43,177.293 114.641,177.524 114.799,177.813C114.956,178.103 115.035,178.464 115.035,178.897C115.035,179.388 114.951,179.784 114.782,180.085C114.614,180.385 114.386,180.618 114.1,180.783C113.814,180.948 113.482,181.06 113.105,181.119C112.727,181.177 112.333,181.207 111.922,181.207L110.932,181.207L110.932,184.43L109.546,184.43L109.546,176.642ZM111.768,180.019C111.966,180.019 112.172,180.011 112.384,179.997C112.597,179.982 112.793,179.938 112.973,179.865C113.152,179.791 113.299,179.681 113.413,179.535C113.526,179.388 113.583,179.183 113.583,178.919C113.583,178.677 113.532,178.484 113.429,178.341C113.327,178.198 113.195,178.088 113.033,178.011C112.872,177.934 112.692,177.885 112.494,177.863C112.296,177.841 112.106,177.83 111.922,177.83L110.932,177.83L110.932,180.019L111.768,180.019Z" style="fill:rgb(39,38,38);fill-rule:nonzero;"/>
        <path d="M120.337,176.642L121.723,176.642L121.723,183.176L125.034,183.176L125.034,184.43L120.337,184.43L120.337,176.642Z" style="fill:rgb(39,38,38);fill-rule:nonzero;"/>
        <path d="M130.116,176.642L135.275,176.642L135.275,177.896L131.502,177.896L131.502,179.81L135.077,179.81L135.077,181.064L131.502,181.064L131.502,183.176L135.473,183.176L135.473,184.43L130.116,184.43L130.116,176.642Z" style="fill:rgb(39,38,38);fill-rule:nonzero;"/>
        <path d="M140.907,176.642L143.943,176.642C144.237,176.642 144.526,176.677 144.812,176.746C145.098,176.816 145.353,176.93 145.577,177.087C145.8,177.245 145.982,177.448 146.121,177.698C146.261,177.947 146.33,178.248 146.33,178.6C146.33,179.04 146.206,179.403 145.956,179.689C145.707,179.975 145.381,180.18 144.977,180.305L144.977,180.327C145.219,180.356 145.445,180.424 145.654,180.53C145.863,180.637 146.041,180.772 146.187,180.937C146.334,181.102 146.449,181.293 146.534,181.509C146.618,181.726 146.66,181.958 146.66,182.208C146.66,182.633 146.576,182.987 146.407,183.269C146.239,183.552 146.017,183.779 145.742,183.951C145.467,184.124 145.151,184.246 144.796,184.32C144.44,184.393 144.079,184.43 143.712,184.43L140.907,184.43L140.907,176.642ZM142.293,179.81L143.558,179.81C144.02,179.81 144.367,179.72 144.598,179.54C144.829,179.361 144.944,179.124 144.944,178.831C144.944,178.493 144.825,178.242 144.587,178.077C144.348,177.912 143.965,177.83 143.437,177.83L142.293,177.83L142.293,179.81ZM142.293,183.242L143.569,183.242C143.745,183.242 143.934,183.231 144.136,183.209C144.337,183.187 144.523,183.135 144.691,183.055C144.86,182.974 144.999,182.859 145.109,182.708C145.219,182.558 145.274,182.354 145.274,182.098C145.274,181.687 145.14,181.401 144.873,181.24C144.605,181.078 144.189,180.998 143.624,180.998L142.293,180.998L142.293,183.242Z" style="fill:rgb(39,38,38);fill-rule:nonzero;"/>
        <path d="M151.687,180.569C151.687,179.945 151.79,179.379 151.995,178.869C152.201,178.36 152.485,177.925 152.848,177.566C153.211,177.206 153.643,176.93 154.146,176.735C154.648,176.541 155.2,176.444 155.801,176.444C156.41,176.436 156.967,176.526 157.473,176.713C157.979,176.9 158.416,177.173 158.782,177.533C159.149,177.892 159.435,178.325 159.64,178.831C159.846,179.337 159.948,179.901 159.948,180.525C159.948,181.133 159.846,181.687 159.64,182.186C159.435,182.684 159.149,183.113 158.782,183.473C158.416,183.832 157.979,184.113 157.473,184.314C156.967,184.516 156.41,184.62 155.801,184.628C155.2,184.628 154.648,184.531 154.146,184.336C153.643,184.142 153.211,183.867 152.848,183.511C152.485,183.156 152.201,182.728 151.995,182.23C151.79,181.731 151.687,181.177 151.687,180.569ZM153.139,180.481C153.139,180.899 153.203,181.284 153.332,181.636C153.46,181.988 153.642,182.292 153.876,182.549C154.111,182.805 154.391,183.007 154.718,183.154C155.044,183.3 155.409,183.374 155.812,183.374C156.216,183.374 156.582,183.3 156.912,183.154C157.242,183.007 157.525,182.805 157.759,182.549C157.994,182.292 158.175,181.988 158.304,181.636C158.432,181.284 158.496,180.899 158.496,180.481C158.496,180.092 158.432,179.729 158.304,179.392C158.175,179.054 157.994,178.759 157.759,178.506C157.525,178.253 157.242,178.055 156.912,177.912C156.582,177.769 156.216,177.698 155.812,177.698C155.409,177.698 155.044,177.769 154.718,177.912C154.391,178.055 154.111,178.253 153.876,178.506C153.642,178.759 153.46,179.054 153.332,179.392C153.203,179.729 153.139,180.092 153.139,180.481Z" style="fill:rgb(39,38,38);fill-rule:nonzero;"/>
        <path d="M167.241,180.36L164.645,176.642L166.394,176.642L168.231,179.524L170.046,176.642L171.729,176.642L169.177,180.36L172.004,184.43L170.244,184.43L168.187,181.141L166.141,184.43L164.469,184.43L167.241,180.36Z" style="fill:rgb(39,38,38);fill-rule:nonzero;"/>
    </g>
    <g transform="matrix(3.75484,0,0,3.75484,-39.7265,-600.223)">
        <g transform="matrix(-1,-0,0,1,164.35,-28.494)">
            <rect x="100.333" y="190.333" width="51.334" height="51.334" style="fill:none;stroke:black;stroke-width:3.33px;"/>
        </g>
        <g transform="matrix(-1,-0,0,1,190.017,-54.161)">
            <rect x="126" y="216" width="25.667" height="25.667" style="fill:none;stroke:black;stroke-width:3.33px;"/>
        </g>
    </g>
</svg>
