<svg xmlns="http://www.w3.org/2000/svg" width="255" height="69.346" viewBox="0 0 255 69.346">
    <path data-name="Trazado 1" d="m412.426 331.777.095-18.317a6.73 6.73 0 1 1 13.446-.024v4.379h4.207a6.977 6.977 0 0 1-.075 13.949z" transform="translate(-181.936 -306.406)" style="fill-rule:evenodd;fill:#a79684"/>
    <path data-name="Trazado 2" d="m412.426 350.182.095 18.317a6.73 6.73 0 1 0 13.446.024v-4.379h4.207a6.977 6.977 0 0 0-.075-13.949z" transform="translate(-181.936 -321.204)" style="fill-rule:evenodd;fill:#a79684"/>
    <path data-name="Trazado 3" d="m394.656 331.777-.095-18.317a6.73 6.73 0 1 0-13.446-.024v4.379h-4.207a6.977 6.977 0 0 0 .075 13.949z" transform="translate(-167.644 -306.406)" style="fill-rule:evenodd;fill:#a79684"/>
    <path data-name="Trazado 4" d="m394.656 350.182-.095 18.317a6.73 6.73 0 1 1-13.446.024v-4.379h-4.207a6.977 6.977 0 0 1 .075-13.949z" transform="translate(-167.644 -321.204)" style="fill-rule:evenodd;fill:#a79684"/>
    <path data-name="Trazado 5" d="m64.371 363.855 2.909-6.5a12.926 12.926 0 0 0 8.257 2.908q4.764 0 4.769-3.4a4.165 4.165 0 0 0-1.437-3.265 22.208 22.208 0 0 0-5.583-3.009q-9.043-3.744-9.048-10.508a8.256 8.256 0 0 1 3.466-7.064 14.566 14.566 0 0 1 8.847-2.529 22.3 22.3 0 0 1 10.252 2.44l-2.351 6.34q-2.674-2.29-7.444-2.284-4.279 0-4.279 3.388a3.05 3.05 0 0 0 1.4 2.418 28.626 28.626 0 0 0 6.006 2.886 15.345 15.345 0 0 1 6.63 4.4 9.772 9.772 0 0 1 2.035 6.234 9.148 9.148 0 0 1-3.61 7.656c-2.407 1.861-5.672 2.8-9.817 2.8a21.611 21.611 0 0 1-5.594-.579 27.516 27.516 0 0 1-5.4-2.329zm62.157-12.737h-24.973a8.879 8.879 0 0 0 2.875 6.5 10.394 10.394 0 0 0 7.121 2.318c3.722 0 6.541-.969 8.48-2.9l3.164 6.228q-4.3 3.494-12.859 3.5-7.99 0-12.648-4.691T93.031 349q0-8.257 5.114-13.383a16.676 16.676 0 0 1 12.258-5.126q7.605 0 12.213 4.535a15.539 15.539 0 0 1 4.6 11.555 22.808 22.808 0 0 1-.69 4.535zm-24.682-6.14h17.171q-.836-7.656-8.48-7.666-6.987 0-8.692 7.666zm52.105-6.229a8.556 8.556 0 0 0-4.8-1.437 6.5 6.5 0 0 0-5.036 2.574 9.384 9.384 0 0 0-2.206 6.307v19.913h-8.157v-34.968h8.157v3.2a11.591 11.591 0 0 1 9.1-3.844 13.116 13.116 0 0 1 6.407 1.27z" transform="translate(-64.237 -314.548)" style="fill:#a79684"/>
    <path data-name="Trazado 6" d="M212.19 330.384h-4.045v-6.564h4.045v-7.11l8.157-3.009v10.119h9.605v6.563h-9.605v15.311c0 2.507.39 4.268 1.181 5.3s2.151 1.549 4.112 1.549a10.069 10.069 0 0 0 5.482-1.593v7.511a26.176 26.176 0 0 1-8.09.98q-5.232 0-8.034-2.964c-1.872-1.961-2.808-4.769-2.808-8.4v-17.7zm47.793 28.437v-2.941a14.878 14.878 0 0 1-4.769 2.518 17.37 17.37 0 0 1-5.582 1.047q-12.169 0-12.168-12.937V323.82h8.157v22.08q0 6.719 6.04 6.719a9.825 9.825 0 0 0 5.159-1.437 7.338 7.338 0 0 0 3.164-3.321V323.82h8.157v35zm18.375-48.026 8.168-1.95v39.3q0 6.469 3.855 7.7-1.905 3.593-6.463 3.6-5.55 0-5.56-7.711v-40.94zm19.723 0 8.168-1.95v39.3q0 6.469 3.855 7.7-1.905 3.593-6.463 3.6-5.55 0-5.561-7.711z" transform="translate(-112.883 -307.23)" style="fill:#e1310d"/>
    <path data-name="Trazado 7" d="M66.5 399.835v-.035a.26.26 0 0 1 .117-.046.7.7 0 0 1 .171-.111.645.645 0 0 1 .2-.083.229.229 0 0 1 .1.046.836.836 0 0 0 .085-.056.286.286 0 0 1 .083-.04.343.343 0 0 0 .173.092 1.549 1.549 0 0 0 .263.048h.008l.226-.022.2.177a.715.715 0 0 1 .142-.153.225.225 0 0 1 .107.05.079.079 0 0 0 .044.011h.085l.227.038.149-.013.15.028h.149l.236.007.1-.029.2.008h.189l.345-.05c.166.013.266.02.3.02a.361.361 0 0 0 .16-.024.36.36 0 0 1 .1-.038l.576-.118a.275.275 0 0 1 0 .042.2.2 0 0 1-.022.064.715.715 0 0 1-.057.117.639.639 0 0 1-.085.083 1.526 1.526 0 0 0-.228.223c-.038-.052-.068-.077-.093-.077h-.06a1.23 1.23 0 0 1-.114-.128c-.017 0-.04.05-.072.142v.058a.255.255 0 0 1-.109-.058l-.1-.13c0-.005 0-.007-.007-.007l-.221.164a.065.065 0 0 1-.046.011c-.055 0-.128 0-.217-.014L69.8 400c-.033-.05-.068-.073-.107-.07h-.102a.66.66 0 0 0-.163.035.65.65 0 0 1-.189.021.817.817 0 0 1-.212-.059l-.1.009h-.1a.947.947 0 0 1-.093.036l-.334-.072-.089-.107-.11.153-.2-.177-.058.107a.171.171 0 0 1-.16.1h-.007c-.023 0-.053-.018-.088-.061-.072-.085-.125-.128-.164-.128s-.081.063-.1.189l.011.013-.33.352.312.093v.162a.245.245 0 0 1-.06.107l.07.071.015.345c.064-.005.112-.007.142-.007a3.022 3.022 0 0 1 .363.05l.437.018.09.036.117-.043c.1.019.166.028.185.028a.232.232 0 0 0 .107-.036.068.068 0 0 1 .021 0 .222.222 0 0 1 .079.031l.017-.038.038-.007.239.029h.164a.373.373 0 0 0 .077-.068l.032.131a.037.037 0 0 0 .036.025 1.569 1.569 0 0 0 .242-.138.134.134 0 0 1 .064-.029l.138.039a.091.091 0 0 0 .024 0 .381.381 0 0 0 .125-.024 2.4 2.4 0 0 1 .437-.079 2.927 2.927 0 0 1 .313-.081V401a.209.209 0 0 1-.018.1.188.188 0 0 1-.1.071l.019.118a1.185 1.185 0 0 0-.192.146H70.5a.9.9 0 0 1-.263-.039l-.164-.064a.623.623 0 0 1-.146.075c-.015 0-.107 0-.278.006h-.078a1.241 1.241 0 0 0-.171-.032.525.525 0 0 0-.064 0c-.118.019-.185.028-.2.028s-.051 0-.146-.017a.253.253 0 0 0-.039 0 1.1 1.1 0 0 0-.134.007.53.53 0 0 1-.065 0 .823.823 0 0 1-.134-.029l-.214.042-.121-.01-.12.01h-.1l-.144.011a1.3 1.3 0 0 0-.2-.06l-.014.018-.011.078-.188-.021a.252.252 0 0 0-.018.1.933.933 0 0 0-.019.085c0 .024 0 .066.011.125l.015.352a.164.164 0 0 1-.086.035.128.128 0 0 0-.038.079.165.165 0 0 0 .107.138.484.484 0 0 0-.227.12.317.317 0 0 0-.044.193.206.206 0 0 0 .118.206c.107.05.16.083.16.1v.006a.357.357 0 0 0-.057.149.409.409 0 0 0 .011.083l.06.046.011.035-.026.025a.163.163 0 0 0-.074.021.155.155 0 0 0 .068.076v.054l.007.54a.105.105 0 0 1-.024.068c0 .005-.038.038-.1.1a.039.039 0 0 0-.015.035c0 .047.046.076.138.085l.007.31.007.577c.015.082.021.127.021.134a.211.211 0 0 1-.106.16c.028.154.074.227.139.217v.135c.01.147.013.234.013.263 0 .07-.021.107-.063.107a.225.225 0 0 1-.083-.018c0 .062-.011.1-.028.115a.315.315 0 0 1-.075.028l-.1.046-.15.046-.124.044a.187.187 0 0 1-.092-.054.208.208 0 0 0 .013-.046.182.182 0 0 0-.05-.1 1.425 1.425 0 0 0 .089-.178.529.529 0 0 0 .06-.1.523.523 0 0 0 0-.093 2.431 2.431 0 0 0 .046-.462c0-.015 0-.046-.009-.1a.057.057 0 0 1 .035-.018.2.2 0 0 1 .081.022l-.028-.065a.2.2 0 0 0-.054-.013.115.115 0 0 1-.061-.025.468.468 0 0 1-.015-.164v-.234c0-.019.028-.044.068-.075a.179.179 0 0 1-.007-.05c0-.018.016-.036.046-.05l.011.011.028-.021v-.093l-.024.011-.019-.074a.14.14 0 0 1-.031 0c-.042 0-.064-.021-.064-.061v-.114a2.632 2.632 0 0 0 .007-.263.452.452 0 0 0 .035-.085.181.181 0 0 0-.021-.068.2.2 0 0 0 .06-.12c0-.026-.019-.053-.06-.082V403.456c0-.027.007-.065.007-.081a.838.838 0 0 0-.028-.121.338.338 0 0 1-.015-.1.114.114 0 0 1 .071-.111v-.07h.015l.058-.054-.037-.121-.06-.019a2.063 2.063 0 0 1-.042-.113 2.588 2.588 0 0 1-.007-.291l-.025-.14-.011-.114-.011-.142c0-.05 0-.112.011-.188.052 0 .08 0 .085-.022a.4.4 0 0 0 .022-.089l-.114-.23a.511.511 0 0 0 .029-.118c0-.013-.011-.067-.033-.164l-.021-.191-.04-.173-.014-.21-.029-.117.019-.113v-.007a.679.679 0 0 0-.068-.167.31.31 0 0 1-.024-.138v-.111l-.128.022-.111-.118zm8.529 4.135a1.592 1.592 0 0 0 .025-.232.311.311 0 0 1 .118-.208l.017-.086h.064l.026-.025a.841.841 0 0 0-.144-.153 1.045 1.045 0 0 0 .256-.185.376.376 0 0 1 .111-.085 1.183 1.183 0 0 1-.313-.088.841.841 0 0 1 .068-.1.869.869 0 0 1-.007-.1.643.643 0 0 1 .064-.167l.022-.085a1.062 1.062 0 0 0 .1-.168l.107.023a.463.463 0 0 0 .021-.118 1.937 1.937 0 0 0-.061-.206l.061-.127.057-.207.046-.075a2.5 2.5 0 0 0 .132-.352l.028-.071.028-.072.083-.153.064-.146.155-.324.033-.1a.263.263 0 0 0 .032-.089.574.574 0 0 0 0-.064l.019-.021a.644.644 0 0 0-.085-.014.083.083 0 0 1-.068-.032l-.03-.064a1.907 1.907 0 0 1 .446-.249 1.22 1.22 0 0 1 .406-.122.148.148 0 0 1 .057.019.81.81 0 0 1-.132.374l-.221.376-.028.085c-.009.017-.044.03-.1.04.052.013.078.035.078.063a.219.219 0 0 1-.04.114q-.011.019-.127.157a.362.362 0 0 0-.054.128.772.772 0 0 1-.068.156h-.011a.117.117 0 0 1-.071-.035h-.011l-.042.092-.093.042a.338.338 0 0 0 .05.157l.085-.042.018.018a.473.473 0 0 1-.018.077 1.046 1.046 0 0 0-.035.129.244.244 0 0 0 .024.074l-.124.156-.2.651a.751.751 0 0 1-.1.232h-.068a.2.2 0 0 0 .028.1c0 .007.021.022.061.046v.035a.173.173 0 0 1-.042.089.17.17 0 0 0-.032.064 1.013 1.013 0 0 0 0 .132 1.98 1.98 0 0 0-.026.234c0 .042-.023.166-.064.37 0 .025-.006.045-.006.056V404.065a.694.694 0 0 1-.024.157l-.038.024a.324.324 0 0 1 .011.068c0 .01-.009.061-.025.153l.035.036h.086a.316.316 0 0 1 .024.093.468.468 0 0 1-.007.06.91.91 0 0 0 0 .1.845.845 0 0 0 .036.26l.063.21a.215.215 0 0 1 .011.075 1.315 1.315 0 0 1-.021.173.221.221 0 0 0 .1.03l.042.077.081.018a1 1 0 0 0 .234.391 1.4 1.4 0 0 0 .278.188.429.429 0 0 0 .1.093.419.419 0 0 0 .177.042.528.528 0 0 0 .1-.018l.032.085a.66.66 0 0 0 .111.011 1.516 1.516 0 0 0 .205-.039.363.363 0 0 1 .075-.007l.093.007.132.007.05.013.127-.052.081-.025c.1-.033.173-.057.224-.072l.024-.05a.449.449 0 0 0 .182-.1l.124.04a.161.161 0 0 1 .15-.111h.047a.425.425 0 0 1 .077-.072l.128-.05a2.04 2.04 0 0 1 .224-.15l.054.042.127-.057c.022-.05.039-.076.05-.081l.107-.05.14-.085a1.377 1.377 0 0 0 .152-.046l.132-.079c.03-.095.079-.142.146-.142a.4.4 0 0 1 .085.011v-.107a.17.17 0 0 0 .086-.035.994.994 0 0 1 .234-.2l.121-.044a.738.738 0 0 0 .131-.188c.077-.083.128-.142.157-.177l-.026-.079.015-.142v-.131c0-.057-.007-.08-.007-.09l.018-.291v-.327c.075-.034.114-.062.114-.086s-.021-.035-.061-.07v-.076l-.038-.011a.361.361 0 0 1-.019-.107.294.294 0 0 1 .035-.089.3.3 0 0 0 .036-.135l-.149-.057a.659.659 0 0 0 .052-.267 1.968 1.968 0 0 0-.017-.266 2.529 2.529 0 0 1-.032-.256 1.344 1.344 0 0 1 .029-.281c.054-.04.081-.075.081-.107a.074.074 0 0 0-.013-.05l-.1-.093a.125.125 0 0 1-.044-.092c.1-.037.191-.075.285-.114l-.3-.07.011-.217-.032-.107-.007-.2-.042-.334a1.2 1.2 0 0 1 .029-.161 2.133 2.133 0 0 0-.075-.071c-.04-.03-.061-.057-.061-.077a.088.088 0 0 1 .022-.054.9.9 0 0 1 .142-.079l.324-.2a.718.718 0 0 1 .071-.017c.026-.007.077-.017.153-.029a.233.233 0 0 1 .053.121l-.05.384a1.539 1.539 0 0 0-.007.174 1.329 1.329 0 0 0 .026.227.256.256 0 0 1 0 .04c0 .038 0 .115-.007.234a1.6 1.6 0 0 1-.042.2.16.16 0 0 0-.007.05.236.236 0 0 0 .05.111.05.05 0 0 1 .01.032.437.437 0 0 1-.017.079.163.163 0 0 1-.125.166.087.087 0 0 0-.042.072.167.167 0 0 0 .007.042h.015a.64.64 0 0 0 .111-.015l.024.022-.024.092.074.011c.007.057.015.226.022.508l.009.191a1.888 1.888 0 0 0-.031.387.262.262 0 0 0 .046.132.072.072 0 0 1 .015.046.208.208 0 0 1 0 .038c0 .07-.007.113-.007.131v.335a.29.29 0 0 0 .022.078.14.14 0 0 1 0 .025.443.443 0 0 1-.01.085 1.409 1.409 0 0 0-.011.178c0 .025 0 .192.015.5a1.194 1.194 0 0 1-.022.146c-.08.028-.121.065-.121.111a.147.147 0 0 0 .05.12.4.4 0 0 0 .118.039.068.068 0 0 1 .053.072l-.028.107v.024a1.549 1.549 0 0 0 .013.213.631.631 0 0 1-.2.125v.011a.666.666 0 0 0 .149.1l.022.077.038.015a.975.975 0 0 1 .011.1 1.646 1.646 0 0 0 .035.192.48.48 0 0 0 .032.134l.06.015.022.207a.323.323 0 0 0-.114.06l-.1.1-.128.06-.256.14a.2.2 0 0 1-.082.017.653.653 0 0 1-.1-.01v-.029a.778.778 0 0 1 .04-.164.519.519 0 0 0 .021-.149 1.678 1.678 0 0 0-.05-.3.4.4 0 0 1 0-.074 1.2 1.2 0 0 1 .033-.186l.006-.156.011-.131-.031-.227a.113.113 0 0 0-.033-.057 12.209 12.209 0 0 1-.401.235c-.14.062-.21.093-.212.1l-.189.149-.306.16a.408.408 0 0 0-.093.039c-.007 0-.022.024-.046.071a.964.964 0 0 0-.138.05l-.267.16-.33.146a.875.875 0 0 1-.267.107h-.06l.018.1a.906.906 0 0 0-.3.124.41.41 0 0 1-.216.09c-.02 0-.052-.021-.1-.061a1.457 1.457 0 0 0-.164.077.157.157 0 0 0-.057.079.348.348 0 0 0-.077-.01 2.175 2.175 0 0 0-.263.077l-.227-.181c-.022 0-.045.055-.068.177a.267.267 0 0 0-.175-.06l-.063.1a2.345 2.345 0 0 1-.453-.121l.033-.078a.227.227 0 0 0-.065-.011.22.22 0 0 0-.092.043 2.553 2.553 0 0 0-.234-.164s-.069-.071-.193-.21a1.088 1.088 0 0 1-.167-.127c0-.01-.028-.072-.068-.185a.323.323 0 0 0-.05-.09.262.262 0 0 1-.054-.081.115.115 0 0 1 .018-.054.177.177 0 0 1 .113.054.67.67 0 0 0 .061-.168l-.013-.015-.011.011h-.111l-.035-.035-.011.007h-.092l-.025-.122c-.045-.031-.069-.054-.074-.07l-.015-.068a.261.261 0 0 1-.039-.1.1.1 0 0 1 .05-.081.339.339 0 0 1-.068-.111l-.015-.157a1.1 1.1 0 0 1-.032-.163c0-.017.009-.12.026-.313a.6.6 0 0 1 .009-.092l.044-.065a.186.186 0 0 0 .028-.105.15.15 0 0 0-.065-.126z" transform="translate(-65.002 -337.878)" style="stroke:#a79684;stroke-miterlimit:22.926;stroke-width:.5px;fill:#a79684"/>
    <path data-name="Trazado 8" d="m96.282 399.592.032.114h.107v.074a.359.359 0 0 0 .1.185.55.55 0 0 0-.019.116v.068h.042a.124.124 0 0 1 .085.035.569.569 0 0 0 .071.05l.058.146a.529.529 0 0 1 .088.1 1.185 1.185 0 0 0 .081.118l.093-.024a1.336 1.336 0 0 0 .17.291 2.738 2.738 0 0 0 .245.313.436.436 0 0 1 .111.181.487.487 0 0 0 .083.134l.352.47a.321.321 0 0 1 .067.111.124.124 0 0 1-.028.067c.026.043.044.073.054.093a.261.261 0 0 0 .074.1.19.19 0 0 0 .071.021l.057.071h.039l.011-.011.074.1a2.231 2.231 0 0 0 .178.235l.107.093a.709.709 0 0 1 .1.16l.088.109.1.15.142.177c.024.085.036.13.039.134a.278.278 0 0 0 .139.054l.142.178.046.011v.017a.84.84 0 0 1 .1.082 3.558 3.558 0 0 1 .22.308l.263.289a.773.773 0 0 0 .153.181.268.268 0 0 0-.028.1c0 .017.038.063.117.138.191.22.3.347.335.377a1.216 1.216 0 0 0 .134.107l.026-.046v-.007s0-.016-.007-.039a.623.623 0 0 1-.019-.136 4.2 4.2 0 0 1 .036-.422 1.424 1.424 0 0 0 .014-.186.591.591 0 0 0 0-.067c-.018-.156-.028-.239-.028-.249a.271.271 0 0 1 .085-.164.569.569 0 0 1-.121-.306 1.072 1.072 0 0 1 .022-.114.078.078 0 0 0 0-.021c0-.007-.011-.076-.031-.206l.006-.282c-.019-.1-.028-.153-.028-.166s.011-.067.031-.164v-.015a.8.8 0 0 0-.009-.1.562.562 0 0 1-.011-.107.285.285 0 0 1 .011-.077.8.8 0 0 0 .024-.1l-.015-.068a.073.073 0 0 1 0-.018.064.064 0 0 1 0-.017l.019-.079v-.02l.011-.451-.011-.3-.007-.306a9.322 9.322 0 0 1-.038-.255.591.591 0 0 1 .038-.114v-.011c0-.025-.024-.057-.073-.092a.559.559 0 0 0 .017-.118 1.185 1.185 0 0 0-.028-.134.57.57 0 0 0-.011-.142c-.012-.045-.022-.087-.035-.124l.074-.074v-.036l-.124-.089a.186.186 0 0 1 .028-.075c.01-.009.093-.06.253-.152a.94.94 0 0 1 .211-.121c.028 0 .05.024.063.073a.747.747 0 0 1 .042.179c0 .01-.025.15-.077.424l.022.564a1.287 1.287 0 0 0-.057.3.249.249 0 0 0 .05.144l-.015.063-.011.594.025.078c-.057.015-.086.046-.086.1l.082.275v.007c0 .013-.034.029-.1.046s-.1.046-.1.089l.2.38-.025.246v.284l-.01.068.028.124.007.184.039.217a.209.209 0 0 1-.015.046l-.081.015v.061a.155.155 0 0 0 .061.114.583.583 0 0 1 .011.074l-.007.156.017.15.007.121.029.106-.2.349.207.12-.516.132.537.227a.606.606 0 0 0-.043.214c0 .017.01.073.028.171v.01c0 .042-.049.1-.146.171a.565.565 0 0 1-.263.124 2.885 2.885 0 0 1-.017-.12c-.01-.087-.035-.132-.075-.132a.365.365 0 0 0-.153.068.265.265 0 0 1-.107-.135l-.089-.149-.031-.079a.607.607 0 0 1-.107-.2.738.738 0 0 1 .011-.093.965.965 0 0 0-.193-.077 3.9 3.9 0 0 0-.142-.249.814.814 0 0 0-.146-.156.372.372 0 0 0 .032-.115.656.656 0 0 0-.081-.128 1.485 1.485 0 0 1-.15-.142 1.481 1.481 0 0 0-.107-.13.383.383 0 0 1 .042-.089v-.044h-.064a.146.146 0 0 0-.038-.085.631.631 0 0 0-.054-.042l-.054-.068c-.107-.021-.16-.066-.16-.135a.542.542 0 0 1 .011-.1l-.085-.019-.028-.074-.419-.526-.007-.032.156-.1v-.029a.209.209 0 0 0-.082-.032.234.234 0 0 0-.1.046 1.96 1.96 0 0 1-.173-.185.747.747 0 0 1-.164-.164.849.849 0 0 0-.138-.188.387.387 0 0 1-.046-.071.648.648 0 0 1-.064-.125c-.025-.077-.044-.121-.061-.131a.107.107 0 0 0-.05-.011.39.39 0 0 0-.054 0c-.021-.03-.041-.06-.061-.085a1.891 1.891 0 0 1-.134-.207c-.045-.012-.067-.022-.064-.028a1.276 1.276 0 0 0-.12-.167 4.27 4.27 0 0 0-.267-.342v-.029l.011-.011.067-.021a.392.392 0 0 0-.173-.164l-.035.046c-.071-.047-.109-.085-.114-.114a.215.215 0 0 1-.008-.074 1.634 1.634 0 0 1-.232-.192 6.899 6.899 0 0 0-.308-.313l-.029.024c-.045.081-.073.117-.085.107l-.21.1.2.086a.142.142 0 0 1 .093.131.26.26 0 0 1-.011.054 1.185 1.185 0 0 0-.057.271 1.041 1.041 0 0 1-.017.188.349.349 0 0 1-.053.092.506.506 0 0 1 .064.128q.013.039.05.167l-.019.267.032.242a.62.62 0 0 1-.035.136l-.06.01.032.107v.05a.18.18 0 0 0 .077.125 1.183 1.183 0 0 0-.018.185v.06l.022.416a.41.41 0 0 1-.022.085h-.1c.013.047.02.077.022.092a.786.786 0 0 0 .022.1l.024.079v.113l.021.1-.011.181a.365.365 0 0 0 .019.089.1.1 0 0 1-.079.033l-.015.013.015.232.079-.011c.015.08.026.142.031.184v.32l.017.15a2.953 2.953 0 0 0 .026.324.6.6 0 0 1 .011.107.579.579 0 0 1-.007.066l.025.15a.3.3 0 0 1-.054.136.167.167 0 0 0-.035-.036l-.4.232a.628.628 0 0 1-.107.046.353.353 0 0 1-.014-.072c0-.015.013-.1.039-.256l.007-.127.017-.132v-.181l.022-.043c.026-.054.044-.089.053-.1s.051-.036.153-.1a.722.722 0 0 0 .058-.142.047.047 0 0 0-.011-.029s-.063-.042-.181-.115a.1.1 0 0 1-.061-.089v-.014a.615.615 0 0 0 0-.071v-.075a2.251 2.251 0 0 1-.011-.128.3.3 0 0 1 .068-.153l-.093-.046c0-.052.013-.178.032-.377l.007-.181a.756.756 0 0 0 .013-.107v-.035a1.641 1.641 0 0 1-.028-.293 2.136 2.136 0 0 0-.019-.249v-.06c0-.012.025-.058.075-.1a.137.137 0 0 1-.031-.071.165.165 0 0 1 0-.028.742.742 0 0 0 .006-.083l-.05-.2v-.367c0-.028 0-.086.012-.174a.8.8 0 0 1 .02-.146l.046-.128a.085.085 0 0 0-.011-.025c-.09 0-.135-.035-.135-.1v-.136c0-.045 0-.114-.007-.207l.053-.042.011-.057c.06-.016.093-.038.1-.063a.175.175 0 0 0 .007-.057.387.387 0 0 0-.054-.171l-.075.05-.039-.038c.179-.058.269-.1.269-.118l-.3-.118.018-.3a3.245 3.245 0 0 1-.038-.291v-.042l-.1-.024a.24.24 0 0 0-.007-.065.106.106 0 0 1 0-.029.075.075 0 0 1 .019-.05.661.661 0 0 1 .12-.074l.04-.06.067-.057.217-.2a1.262 1.262 0 0 1 .177-.1zm9.174.188c.04 0 .092-.034.156-.1h.184l.192-.007a.982.982 0 0 1 .175.068.031.031 0 0 0 .017 0 .329.329 0 0 0 .072-.032h.038l.665-.022a.147.147 0 0 1 .085.035.348.348 0 0 0 .1.044l.061-.061a3 3 0 0 1 .4.029l.011-.011c.04.055.077.083.114.083s.065-.029.1-.087c.067.005.124.007.173.007l.5.065h.157a1.242 1.242 0 0 0 .206.035c.01.048.024.074.043.079a.5.5 0 0 0 .143.021c.025-.052.054-.078.081-.078l.071.02h.12a.3.3 0 0 1 .122.054.424.424 0 0 0 .146.072l.074-.022.328.14a1.672 1.672 0 0 1 .359.1.221.221 0 0 0 .054.036l.07.011c.055.04.095.068.122.085l.149.118.16.1a1.546 1.546 0 0 0 .216.142.54.54 0 0 0-.021.111c0 .062.021.092.061.092a.292.292 0 0 0 .111-.025 2.267 2.267 0 0 0 .188.2c.054.054.079.089.074.1l.025.105.089.246.007.163.061.221.011.27.024.113-.019.271a1.827 1.827 0 0 1-.031.316 2.428 2.428 0 0 1-.081.256h-.064a.094.094 0 0 0 0 .024.52.52 0 0 0 .039.079.1.1 0 0 1 0 .028.347.347 0 0 1-.024.114c-.02.048-.03.075-.033.085-.035.112-.069.167-.1.167s-.058-.036-.088-.111l-.078.128.024.043-.019.07.065.092a1.818 1.818 0 0 0-.154.281l-.088.115-.015.042-.16.166-.024.064-.1.122c-.038.044-.063.067-.075.067s-.028-.011-.05-.032h-.052l-.047-.061a.2.2 0 0 0-.063.11.167.167 0 0 0 .05.092 1.47 1.47 0 0 1-.217.167.544.544 0 0 0-.118.1.881.881 0 0 0-.227-.061l-.015.043a.421.421 0 0 1 .061.107 2.08 2.08 0 0 1-.242.189l-.242.124a.73.73 0 0 0-.118.1.256.256 0 0 0-.149-.077.269.269 0 0 1-.065.146 2 2 0 0 1-.22.063.13.13 0 0 0-.052.03 1.567 1.567 0 0 1-.14.11h-.077a.375.375 0 0 0-.1.063.814.814 0 0 1-.156.061l-.064.029a1.307 1.307 0 0 1-.3.113 1.125 1.125 0 0 0-.234.05l-.341.118-.236.022-.089.028-.06.007-.132.018h-.079l-.149.036-.2.007-.281.021h-.064a1.132 1.132 0 0 1-.142-.009l-.54.021-.033.011a.057.057 0 0 1-.021 0c-.062 0-.092-.029-.092-.089a.045.045 0 0 1 .023-.042 1.361 1.361 0 0 1 .162-.068.948.948 0 0 0 .207-.1.376.376 0 0 1 .07-.171 2.359 2.359 0 0 1-.009-.166l.046-.271a.363.363 0 0 0-.011-.085l-.015-.05c0-.007.017-.083.05-.224a.254.254 0 0 0 .007-.061.43.43 0 0 0-.042-.131l.291-.083-.281-.451.007-.013c.09-.019.135-.05.135-.093a.226.226 0 0 0-.05-.109.167.167 0 0 1-.061.013c-.035 0-.054-.039-.054-.117l.007-.09v-.479a.4.4 0 0 0-.007-.085v-.044a.321.321 0 0 1 .061-.153l-.061-.042v-.1l.057-.057a.22.22 0 0 1-.068-.16v-.093c0-.14 0-.239-.009-.3v-.081a.2.2 0 0 1 .021-.078.562.562 0 0 0 .075.006c.03 0 .046-.012.046-.038 0-.007-.015-.024-.042-.054a.307.307 0 0 0-.065-.07c-.059-.005-.091-.033-.1-.083l.024-.2-.028-.7.024-.024h.029a.652.652 0 0 0 .038-.153c0-.034-.034-.067-.1-.1a2.935 2.935 0 0 0-.067-.321l-.007-.128a.633.633 0 0 1-.029-.191c0-.065-.015-.177-.039-.342a.782.782 0 0 1-.1 0h-.022a.324.324 0 0 0-.078.022.419.419 0 0 1-.145.017.182.182 0 0 1-.023-.077.137.137 0 0 1 .1-.122.178.178 0 0 0 .083-.053zm.757.8h.085a.942.942 0 0 1 .046.232l.018.077-.007.228.011.131a.72.72 0 0 0-.054.132 1.033 1.033 0 0 0 .028.112l-.015.26v.191a1.06 1.06 0 0 1 .026.136.145.145 0 0 1-.019.064l-.092-.029a.164.164 0 0 0-.022.068.071.071 0 0 0 .054.077.2.2 0 0 0 .04.007.442.442 0 0 1 .085.022 1.166 1.166 0 0 1-.115.1c-.114.085-.169.154-.169.206 0 .006.1.157.287.451a1.5 1.5 0 0 0-.035.273l-.086.038.018.036.089.032.007.035v.509a2.946 2.946 0 0 0 .019.5.39.39 0 0 1 0 .04l-.018.117a.559.559 0 0 0 0 .06 2.394 2.394 0 0 0 .039.291.329.329 0 0 1 0 .043.163.163 0 0 1-.024.075l-.146-.046a.174.174 0 0 0-.04.092c0 .079.044.118.132.118h.039a.793.793 0 0 0 .022.156 1.467 1.467 0 0 1 .013.234 2.589 2.589 0 0 0 .029.263.387.387 0 0 0-.146.169l-.1.044v.021l.009.015a.185.185 0 0 1 .044-.015l.191.007a1.192 1.192 0 0 1 .135 0 .484.484 0 0 1 .068.035l.05-.07a.5.5 0 0 0 .067.007l.356-.011a.447.447 0 0 1 .06.024.209.209 0 0 1 .068-.088.37.37 0 0 1 .149-.023h.036a.877.877 0 0 0 .252-.021l.1-.042.142-.042c.209-.086.338-.144.385-.171l.115-.032.212-.09h.082l.188-.1a.39.39 0 0 0 .138-.043.178.178 0 0 0 .007-.042l.1-.042a1.792 1.792 0 0 0 .32-.181c.073-.036.123-.062.15-.079s.134-.109.352-.291l.2-.157.1-.153.175-.163a.367.367 0 0 0 .063-.1 2.645 2.645 0 0 1 .236-.306l.035-.089c.01-.022.034-.071.074-.149a.467.467 0 0 0 .048-.2.765.765 0 0 1 .077-.232.476.476 0 0 0 .06-.206v-.163l.032-.193a1.157 1.157 0 0 1 .025-.169q.131-.03.131-.2c0-.067-.044-.12-.131-.16a1.811 1.811 0 0 0-.044-.253l-.006-.1a.9.9 0 0 1-.044-.15.589.589 0 0 1 .015-.118.777.777 0 0 1-.138-.177 4.831 4.831 0 0 1-.111-.2.648.648 0 0 1-.015-.1l-.038-.04a.324.324 0 0 1-.081-.007.331.331 0 0 1-.129-.081.278.278 0 0 0 .022-.1.135.135 0 0 0-.031-.068.667.667 0 0 0-.1-.007c-.006 0-.039 0-.1.015h-.007a1.212 1.212 0 0 1-.216-.16l-.164-.1-.107-.085-.111-.053-.252-.131-.107-.033-.092-.031-.181-.026-.136-.038-.288-.046-.217-.046a2.723 2.723 0 0 1-.3-.06 1.188 1.188 0 0 1-.071-.061c-.024-.02-.041-.032-.054-.032a.206.206 0 0 0-.085.028.144.144 0 0 1-.068.022l-.121-.018h-.146l-.376-.024-.306.011h-.208a.2.2 0 0 1-.085-.018.769.769 0 0 0-.107-.039l-.057.021a.433.433 0 0 1-.089.019.211.211 0 0 0-.033.075l.011.128-.028.1a1.114 1.114 0 0 1-.039.2l-.064-.022a.181.181 0 0 0-.032.086.05.05 0 0 0 .013.036z" transform="translate(-74.853 -337.906)" style="stroke:#a79684;stroke-miterlimit:22.926;stroke-width:.5px;fill:#a79684"/>
    <path data-name="Trazado 9" d="M125.259 406.224a.337.337 0 0 1 .031-.054l.1-.064a.918.918 0 0 0 .143-.171.729.729 0 0 1 .081-.066.248.248 0 0 0 .068-.083.459.459 0 0 1 0-.056.231.231 0 0 1 .1-.161 1.6 1.6 0 0 0 .164-.171l.2-.355a.372.372 0 0 1 .067-.022l.015-.013v-.068a.124.124 0 0 1 .007-.054l.089-.117.352-.547.007-.036a.093.093 0 0 0-.042-.021.2.2 0 0 0-.039.007.182.182 0 0 1-.036 0h-.067a.364.364 0 0 1-.022-.1.242.242 0 0 1 .046-.081.539.539 0 0 1 .061-.142l.085-.121a.31.31 0 0 1 .1.011l.157.054.011-.007a.17.17 0 0 0-.007-.138c.042-.029.067-.048.071-.061l.071-.134a.614.614 0 0 1 .14-.153.3.3 0 0 1 .023-.1 1.511 1.511 0 0 1 .138-.129c.006-.009.034-.073.081-.191a3.88 3.88 0 0 1 .2-.306l.234-.455.1-.1a.22.22 0 0 1 .013-.074l.1-.146a.037.037 0 0 0 .007-.025.234.234 0 0 0-.007-.057.339.339 0 0 0 .068-.1.91.91 0 0 1 .068-.122l.07.1a.174.174 0 0 0 .019-.06.219.219 0 0 0-.029-.086.623.623 0 0 1 .053-.107.468.468 0 0 0 .068-.117.336.336 0 0 0 0-.079.383.383 0 0 1 .038-.077 1.529 1.529 0 0 0 .072-.175 2.1 2.1 0 0 1 .039-.1l.153-.015-.015-.046-.092-.043v-.057a.28.28 0 0 0 .079-.1l-.04-.036v-.015a.51.51 0 0 0 .1-.138c.032-.057.058-.1.083-.142a.183.183 0 0 1-.029-.083v-.134l.287-.2.068.05a.7.7 0 0 0 .042-.089c.017-.041.034-.06.05-.06a.137.137 0 0 1 .058.015.17.17 0 0 1 .071-.111.215.215 0 0 1 .127-.054c.072 0 .111.086.118.259a1.757 1.757 0 0 1 .042.234.7.7 0 0 0 .093.249 1.28 1.28 0 0 1 .046.242v.086l-.142.074a.208.208 0 0 0 .06.089c.013 0 .066.022.16.05.045.015.093.085.142.21a.756.756 0 0 1 .053.16.235.235 0 0 1-.042.089c.038.039.064.062.074.071a.475.475 0 0 1 .1.1l.044.111.07.177a.586.586 0 0 0 .142.352l.011.1.079.122c.008.019.058.119.149.3l-.082.05a.217.217 0 0 0 .057.1l.053.011-.011.077a1.013 1.013 0 0 1 .373.673 1.576 1.576 0 0 0 .153.331q.192.362.214.422a.723.723 0 0 0 .077.153l.221.488-.007.1c.142.076.214.148.214.216 0 .034-.035.067-.1.1a.148.148 0 0 0 .057.075.3.3 0 0 0 .07.028c.034.012.069.056.107.132a1.9 1.9 0 0 1 .092.256c.1.157.166.258.192.306a.147.147 0 0 0-.067.113v.054a1.021 1.021 0 0 1-.171.064.6.6 0 0 1-.124.011 1.226 1.226 0 0 0-.25.085 1.739 1.739 0 0 1-.109-.3.482.482 0 0 0-.068-.16 1.871 1.871 0 0 1-.1-.3v-.057a.24.24 0 0 1-.075-.107.768.768 0 0 1-.007-.111.467.467 0 0 1-.007-.054.286.286 0 0 1 .036-.117l-.107-.1a.868.868 0 0 1 .061-.071c.023-.019.035-.035.035-.05a.215.215 0 0 0-.007-.05l-.17.015a1.139 1.139 0 0 1-.117-.182 1.8 1.8 0 0 1-.058-.224l-.053-.124a1.485 1.485 0 0 0-.064-.269.206.206 0 0 0-.2-.129c-.083 0-.129.089-.138.267a.147.147 0 0 1-.035.011.179.179 0 0 1-.1-.05.57.57 0 0 0-.213-.093.533.533 0 0 1-.15-.052.5.5 0 0 0-.206-.061 1.446 1.446 0 0 0-.2.035l-.1-.018-.114.011h-.1l-.1.015h-.363l-.22-.05-.106.021a1.417 1.417 0 0 0-.125-.032 1.386 1.386 0 0 0-.171.039 1.327 1.327 0 0 1-.2.032l-.1-.113a.761.761 0 0 0-.226.081 1.059 1.059 0 0 1-.157.029l-.057.006a.821.821 0 0 1-.107-.009.759.759 0 0 0-.156-.019.885.885 0 0 0-.177.032.9.9 0 0 1-.156.029c-.026.042-.042.07-.05.085a1.106 1.106 0 0 1-.14.214q-.061.1-.166.28l-.064-.013a.074.074 0 0 0-.028.052.568.568 0 0 0 .01.075c0 .015 0 .034.007.061a.638.638 0 0 0-.074.1l-.171.345c-.03.05-.065.1-.1.164l-.031.05-.2.124a.049.049 0 0 0-.015.04c0 .025.027.06.081.107l-.053.166a.469.469 0 0 0-.117.057.385.385 0 0 0-.1.157.669.669 0 0 0-.132.064.157.157 0 0 1-.074.035.3.3 0 0 1-.071-.035.077.077 0 0 0-.046-.011.356.356 0 0 0-.05 0 .349.349 0 0 0-.149-.092zm1.962-2.461a.35.35 0 0 1 .1-.042c.017 0 .041.015.075.046l.111-.013.042.074a.639.639 0 0 1 .2-.025h.316a.919.919 0 0 1 .238.054 1.972 1.972 0 0 1 .23.024.21.21 0 0 0 .175.111l.223-.111.122.026h.2l.077.021.1-.015.1.011.1-.007.088.025.21-.035.162-.011.317-.033.263.022c.038 0 .058-.015.058-.042a.843.843 0 0 0-.032-.121.482.482 0 0 1-.011-.085.3.3 0 0 1-.1-.107 1.041 1.041 0 0 0-.143-.252.354.354 0 0 1-.052-.118.434.434 0 0 0-.057-.128.9.9 0 0 0 .017-.156.383.383 0 0 0-.028-.118l-.124.018a.9.9 0 0 1-.046-.107l-.024-.089-.079-.11-.089-.156-.039-.068a.786.786 0 0 0-.092-.262.289.289 0 0 1-.046-.156l.07-.033a.1.1 0 0 0-.089-.057.366.366 0 0 0-.05 0l-.05-.1a1.4 1.4 0 0 1-.085-.131l-.022-.138-.053-.093-.054-.124-.118-.145-.063-.207-.061-.107a1.331 1.331 0 0 0-.1-.177.318.318 0 0 0-.122.113.437.437 0 0 0-.057.214h-.021a3.18 3.18 0 0 1-.157.238l-.206.392a.66.66 0 0 0-.074.17.175.175 0 0 0-.083.1.33.33 0 0 1-.192.2l.019.1-.054.026a2.485 2.485 0 0 0-.118-.011l-.028.046.092.057a1.442 1.442 0 0 1-.125.281 1.052 1.052 0 0 1-.316.412c-.023.015-.038.052-.042.114a.346.346 0 0 1-.032.128l-.1.177-.083.089-.042.1a1.388 1.388 0 0 0-.1.179 1.317 1.317 0 0 1-.046.124zm8.751-.8a.089.089 0 0 1-.054-.074 1.8 1.8 0 0 1 .042-.179 3.332 3.332 0 0 1 .089-.352l.153-.011a.437.437 0 0 0-.05-.138.117.117 0 0 1-.011-.054 1.578 1.578 0 0 1 .089-.287 1.06 1.06 0 0 1 .089-.267l.118-.2a.287.287 0 0 1 .063.015.519.519 0 0 0 .061.017.126.126 0 0 0 .071-.039.117.117 0 0 0 .06-.021.13.13 0 0 0 .026-.057l-.085-.011-.036-.129c0-.023.036-.07.107-.142a.453.453 0 0 0 .058-.071.506.506 0 0 1 .064-.1.369.369 0 0 0 .085-.129l.026-.024a.523.523 0 0 1 .1-.122 2.25 2.25 0 0 1 .146-.1l.011.011.1-.05.006-.082.459-.365a.6.6 0 0 1 .107-.065l.1-.064.089-.024a.733.733 0 0 1 .157-.1.267.267 0 0 1 .1.036l.05-.132.147.029.01-.068c.079-.023.13-.04.156-.05a.956.956 0 0 1 .256-.06l.107-.032a1.125 1.125 0 0 0 .138-.032.359.359 0 0 0 .087-.064h.085a.767.767 0 0 0 .178-.046.36.36 0 0 1 .117-.018.381.381 0 0 1 .1.014.11.11 0 0 0 .05.007l.473-.014a.364.364 0 0 1 .249.13c.052.058.083.087.1.087.042 0 .083-.05.121-.15a.372.372 0 0 0 .192.074.429.429 0 0 0 .05 0c.064-.015.1-.021.1-.021l.114.039a5.012 5.012 0 0 1 .6.181v.107a1.158 1.158 0 0 0-.072.075c-.087.092-.146.138-.174.138a.3.3 0 0 1-.118-.046c-.134-.054-.29-.114-.465-.178l-.046-.117a.828.828 0 0 0-.092.021.429.429 0 0 1-.068.019c-.01 0-.086-.026-.23-.075a.184.184 0 0 1-.083-.05.85.85 0 0 1-.032-.05.55.55 0 0 1-.149.046h-.487l-.089-.009a1.139 1.139 0 0 0-.246.059l-.216.026-.217.042a.511.511 0 0 0-.138.061l-.179.081-.127.089a1.226 1.226 0 0 0-.523.341.836.836 0 0 0-.21.1.243.243 0 0 1-.015.081.846.846 0 0 0-.188.153l-.085.079a.8.8 0 0 1-.138.163.117.117 0 0 1-.061.021.3.3 0 0 1-.042 0 .188.188 0 0 1 .021.05c0 .007-.059.106-.174.3a1.762 1.762 0 0 0-.156.175 4.816 4.816 0 0 0-.083.188l-.074.178-.032.1a1.479 1.479 0 0 0-.124.26c-.01.038-.026.109-.046.213-.035.14-.056.218-.06.232-.008.033-.046.056-.118.071a.232.232 0 0 0 .082.153.463.463 0 0 0-.036.121.853.853 0 0 0 .029.2v.015a.049.049 0 0 1-.033.046l-.28.107a.038.038 0 0 0-.032.039.075.075 0 0 0 .017.039.659.659 0 0 1 .068.121.28.28 0 0 0 .035.077l.16.131.06.164a.381.381 0 0 1 .032.128h-.021l.021.12.05.014a.232.232 0 0 1 .039.111h.011l.015.092a.614.614 0 0 0 .032.135l.064.128a1.51 1.51 0 0 1 .1.306c0 .023-.023.035-.071.035l.035.089a.3.3 0 0 1 .111.011.458.458 0 0 1 .067.035c.048.055.092.111.136.167l.107.1.081.1a1.453 1.453 0 0 1 .2.121.15.15 0 0 0 .057.124.606.606 0 0 0 .171.086l.16.1.121.057.111.056.116.047.082.06a.252.252 0 0 1 .071.061.143.143 0 0 1 .1-.05s.142.036.412.111h.465a.1.1 0 0 1 .054.022.386.386 0 0 0 .1.039.21.21 0 0 0 .061-.046.08.08 0 0 1 .042-.025h.068l.287-.039a2.377 2.377 0 0 0 .32-.071.845.845 0 0 0 .157.038.406.406 0 0 0 .177-.081l.167-.039a1.345 1.345 0 0 0 .2-.079l.081.018a1.189 1.189 0 0 0 .3-.077c.2-.067.3-.1.309-.107a.415.415 0 0 0 .058-.068l.134-.068a.418.418 0 0 1 .207-.063.309.309 0 0 1 .085.021c0-.062.013-.1.033-.114a.524.524 0 0 1 .12-.06.688.688 0 0 1 .129-.068.17.17 0 0 1 .074.032.7.7 0 0 1-.074.293.446.446 0 0 0-.05.138.108.108 0 0 1-.042.053 1.642 1.642 0 0 1-.3.064.891.891 0 0 1-.167.06c-.017.005-.08.021-.191.046l-.157.032-.167.046-.149.021a1.546 1.546 0 0 1-.256.068h-.257v.022c0 .045-.028.067-.085.067h-.03l-.07-.007-.039.007-.438.1a2.215 2.215 0 0 1-.32.035l-.27.015h-.015a.108.108 0 0 1-.089.053c-.109 0-.2.007-.281.007a.768.768 0 0 1-.239-.064.239.239 0 0 0-.089-.015.131.131 0 0 0-.1.064l-.174-.007c-.043-.066-.083-.1-.12-.1H138.254l-.065.007a.757.757 0 0 1-.337-.111 3.311 3.311 0 0 0-.342-.164c-.2-.124-.327-.2-.391-.23l-.024-.064h.077v-.05c0-.079-.029-.122-.089-.129-.036.042-.066.061-.09.061a.5.5 0 0 1-.123-.089l-.242-.167-.075-.1-.035-.038-.125-.185a2.078 2.078 0 0 1-.369-.847l.07-.042v-.067l-.077-.053a.358.358 0 0 0-.033-.153l-.021-.075a.356.356 0 0 1-.042-.077 1.113 1.113 0 0 1 0-.136l-.015-.156.022-.071a.576.576 0 0 1-.036-.134.27.27 0 0 1 .054-.157.671.671 0 0 0 .029-.132zm10.441 3.377c.009-.04.021-.079.032-.116a.972.972 0 0 1 .032-.1.63.63 0 0 0 .061-.153.208.208 0 0 0-.036-.079 1.517 1.517 0 0 0 .071-.348.334.334 0 0 1 .046-.107.063.063 0 0 0 .011-.035.268.268 0 0 0-.042-.092.117.117 0 0 1-.007-.05v-.597c.01-.062.016-.1.019-.111s.023-.036.057-.054v-.128a.2.2 0 0 0 .077-.142v-.06l.011-.006a.184.184 0 0 1-.042-.1l-.036-.15.007-.09v-.145a1.712 1.712 0 0 0 .036-.2 1.8 1.8 0 0 0-.025-.168l.011-.2v-.017a.57.57 0 0 1 0-.061l.007-.391a.147.147 0 0 1 .011-.033.122.122 0 0 0 0-.028.67.67 0 0 0-.033-.167.158.158 0 0 1-.007-.042c0-.021.021-.042.061-.064v-.216c-.05-.024-.074-.048-.074-.075 0-.055.009-.162.024-.32a.432.432 0 0 0 0-.054v-.041c-.023-.338-.036-.516-.036-.532a.4.4 0 0 1 .142-.324.278.278 0 0 0-.054-.149l-.111.015a.312.312 0 0 1-.011-.076l.044-.249-.022-.042a.982.982 0 0 1-.024-.3c0-.024 0-.072-.011-.142l-.089-.09h-.064l-.007-.038a.068.068 0 0 1 .018-.05.68.68 0 0 1 .1-.061l.1-.07.07-.026a.961.961 0 0 1 .16-.042l.036-.1a.481.481 0 0 0 .234-.061.611.611 0 0 1 .033.132v.063c0 .035 0 .056-.007.1l-.019.573v.236a.2.2 0 0 0-.05.047.168.168 0 0 0-.013.07 1.216 1.216 0 0 1-.011.167l.092.018a1.053 1.053 0 0 0-.011.109 4.482 4.482 0 0 1-.081.512l.057.057a1.926 1.926 0 0 1-.061.409c0 .019 0 .077-.007.171l.085.021-.035.3.007.238a.343.343 0 0 1-.018.071l-.077.076.035.181.085.011-.017.036v.6l.024.136v.338c0 .038-.047.087-.142.15 0 .062.006.1.018.107s.023.029.067.061a.222.222 0 0 0 .026.081.2.2 0 0 1 .028.061v.015a.575.575 0 0 0-.007.146l.014.7-.07.073.074.046v.734a.313.313 0 0 0-.057.01l-.128.092a.814.814 0 0 1-.167.039l-.128.076a.31.31 0 0 1-.153.046.347.347 0 0 1-.133-.031z" transform="translate(-84.864 -337.797)" style="stroke:#a79684;stroke-miterlimit:22.926;stroke-width:.5px;fill:#a79684"/>
    <path data-name="Trazado 10" d="M164.733 402.035a.179.179 0 0 0 .085.025c.023 0 .036-.019.036-.057s-.033-.079-.1-.136a.559.559 0 0 1 .015-.1l.068-.169a2.51 2.51 0 0 1 .312-.7q.133-.268.171-.324c.109-.159.194-.275.255-.348l.036.017.053-.056v-.04a.246.246 0 0 1 .079-.15 1.954 1.954 0 0 1 .245-.206.489.489 0 0 1 .061-.1.06.06 0 0 1 .035-.01l.088.032.061-.1-.015-.039a.46.46 0 0 1 .21-.086.256.256 0 0 1 .054-.134.991.991 0 0 1 .224-.111.451.451 0 0 0 .135-.081.169.169 0 0 1 .114-.053.46.46 0 0 1 .067-.072l.178-.081.138-.068.107-.032a1.017 1.017 0 0 1 .267-.111 2.7 2.7 0 0 1 .359-.035l.173-.018.146-.017a1.233 1.233 0 0 1 .128-.022c.028 0 .068 0 .118.007a.591.591 0 0 0 .067 0 1.488 1.488 0 0 1 .249.021c.118.031.179.046.182.046l.326-.028.025.022a.641.641 0 0 0 .085.093.494.494 0 0 0 .178.024.61.61 0 0 1 .173.064l.087.015.067.024.053.019c.022.007.041.042.061.107a.275.275 0 0 0 .064-.042.87.87 0 0 1 .177.066.3.3 0 0 1 .082.146.154.154 0 0 1 .093-.046 2.517 2.517 0 0 1 .309.217.6.6 0 0 1 .124.107c.013.02.025.039.036.061s.034.047.06.085l-.063.107h.024v.11a.169.169 0 0 1 .081-.042c.034 0 .077.029.128.089h.065a.96.96 0 0 0 .06.114.613.613 0 0 1 .082.167.585.585 0 0 1 .1.167.161.161 0 0 0-.057.11v.024a.735.735 0 0 1 .175.193 1.326 1.326 0 0 1 .017.284l.054.2v.114c.017.1.025.167.025.188a.087.087 0 0 1-.015.057l-.079.074a.309.309 0 0 0-.017.14.175.175 0 0 0 .035.111s.028.026.075.063l.032.065a.184.184 0 0 1 .024.06.378.378 0 0 1-.017.071.252.252 0 0 0-.011.079v.046c.005.112.007.187.007.228a1.487 1.487 0 0 1-.068.266l-.017.064-.04.1a.952.952 0 0 1-.057.213.413.413 0 0 1-.073.085l.021.071c-.048.028-.072.052-.074.07v.042a.5.5 0 0 1-.107.2 3.873 3.873 0 0 1-.409.487c-.114.147-.178.23-.2.249a1.52 1.52 0 0 1-.142.1 1.314 1.314 0 0 0-.153.15.622.622 0 0 1-.128.1l-.568.356-.1.042-.917.427-.118.024-.726.191-.028.007-.58.065-.163-.046-.121-.018-.114-.031a.468.468 0 0 1-.131-.014.1.1 0 0 1-.039-.054l.01-.011-.05-.066a.675.675 0 0 0-.146.028h-.011c-.03 0-.054-.024-.067-.074 0 0-.023-.087-.06-.246a.766.766 0 0 0-.03-.081l-.009-.024a1.014 1.014 0 0 0-.068.355 2.78 2.78 0 0 0-.287-.178c-.134-.08-.228-.136-.285-.168a.2.2 0 0 0-.016-.077.145.145 0 0 0-.069-.046.368.368 0 0 0-.026-.107 1.899 1.899 0 0 1-.052-.114.255.255 0 0 1-.136-.042.688.688 0 0 1-.067.018c-.022 0-.06-.038-.114-.111a1.62 1.62 0 0 0-.122-.145.377.377 0 0 0-.018-.136.615.615 0 0 0-.074-.063.176.176 0 0 0-.022-.033 2.359 2.359 0 0 1-.07-.134l-.16-.256a1.192 1.192 0 0 1-.071-.214.153.153 0 0 1 .05-.081h.053l-.009-.1a.219.219 0 0 0-.086-.046c-.055-.017-.084-.08-.089-.189a.968.968 0 0 0-.028-.216 1.918 1.918 0 0 1-.044-.491v-.006c0-.007 0-.048.011-.125 0-.007 0-.079.007-.217a.293.293 0 0 1 .072-.188zm.682 1.6.039.054-.028.007.092.026a.485.485 0 0 0 .111.188.155.155 0 0 1 .042.092.565.565 0 0 0 .068.089.228.228 0 0 0-.064.115.09.09 0 0 0 .042.068.112.112 0 0 0 .072.032.712.712 0 0 0 .124-.036.2.2 0 0 0 .05.078l.085.068a1.35 1.35 0 0 0 .232.179.518.518 0 0 0-.019.124.093.093 0 0 0 .036.076.186.186 0 0 0 .124.046.124.124 0 0 0 .05-.015 1.047 1.047 0 0 0 .153.122c.008.05.017.076.029.081a.2.2 0 0 0 .05.025.6.6 0 0 1 .142.067.69.69 0 0 0 .124.064.636.636 0 0 1 .15.089 1.809 1.809 0 0 1 .271.054 2.182 2.182 0 0 1 .232.05.484.484 0 0 0 .113.035l.057-.01a.5.5 0 0 1 .058 0h.125a.236.236 0 0 0 .085-.026c.038.05.073.075.107.075a1.2 1.2 0 0 0 .2-.064l.12-.015c.107-.045.171-.071.193-.078s.091 0 .238 0l.107-.064a2.909 2.909 0 0 0 .3-.157.236.236 0 0 0 .107.046c.03 0 .064-.026.1-.077a.143.143 0 0 1-.042-.086c0-.021.039-.046.116-.074a.966.966 0 0 0 .136-.085.98.98 0 0 1 .2-.111l.074.058a.366.366 0 0 1 .144-.146l.009-.079a3.079 3.079 0 0 0 .335-.256l.117-.093.125-.167.114-.127.093-.175.1-.15a1.6 1.6 0 0 1 .132-.273.67.67 0 0 1-.006-.083c0-.052.018-.077.056-.077.009 0 .025.012.047.038l.05.057.07-.082h.029c.045 0 .067-.012.067-.039a.235.235 0 0 0-.028-.1.493.493 0 0 1-.142.057.172.172 0 0 1-.036-.092c0-.007.01-.071.029-.189v-.139l.3-.067-.335-.132.164-.017.164-.309a.021.021 0 0 0-.007-.015.249.249 0 0 0-.177-.064c-.045 0-.1 0-.153.007.085-.017.128-.052.128-.107s-.049-.117-.146-.164a.82.82 0 0 0 .011-.109 2.6 2.6 0 0 0-.032-.232 2.1 2.1 0 0 1-.024-.214c-.04-.042-.061-.068-.061-.077l-.064-.359-.057-.1-.056-.121-.079-.111a.851.851 0 0 0-.214-.341v-.12a.237.237 0 0 0-.028-.1l-.132.036a1.194 1.194 0 0 0-.166-.189l-.117-.107c-.009-.007-.1-.06-.267-.149a.492.492 0 0 1-.166-.164.134.134 0 0 1-.061.028.15.15 0 0 1-.089-.053h-.064a.66.66 0 0 1-.271-.106.515.515 0 0 0 .015-.111c0-.041-.042-.075-.125-.1a.339.339 0 0 0-.064.077.234.234 0 0 1-.053.06.937.937 0 0 0-.2-.042 1.658 1.658 0 0 0-.214-.068l-.136.022-.035-.164-.011.167a.6.6 0 0 0-.1-.032 3.04 3.04 0 0 0-.219.04.473.473 0 0 1-.083.006 1.008 1.008 0 0 1-.12-.009 1.226 1.226 0 0 0-.142-.011c-.01 0-.058.009-.147.024l-.181.032-.207.1-.168.028a.3.3 0 0 0-.077.086l-.072-.011-.017.074a.88.88 0 0 0-.2.1v.06a.971.971 0 0 0-.32.2 1.326 1.326 0 0 1-.337.249.811.811 0 0 1-.068.118c-.01.015-.09.1-.242.26a.414.414 0 0 1-.072.132 3.569 3.569 0 0 0-.207.334 3.178 3.178 0 0 0-.146.369l-.068.086-.036.177-.038.064a.764.764 0 0 1-.011.142c0 .01-.026.063-.072.16a.063.063 0 0 0 0 .022l.007.028v.722a.253.253 0 0 0 .015.074l.011.046-.011.178a.191.191 0 0 0 .042.074.441.441 0 0 1 .079.179l.025.124v.1a1.2 1.2 0 0 0 .118.185.069.069 0 0 1 .007.036.348.348 0 0 1-.011.081zm-.107.029h.022l.054.018h.022l-.053-.018h-.04v.007zm3.123-6.152.007-.009v-.011l-.04-.015.036-.118.565-.074a.107.107 0 0 1 .032.065.318.318 0 0 1-.061.088.8.8 0 0 0-.07.124 1.9 1.9 0 0 1-.21.271.892.892 0 0 0-.083.171l-.05.074-.064.088a1.292 1.292 0 0 0-.15.164l-.185-.026a.144.144 0 0 0-.007-.052v-.011a.558.558 0 0 1 .046-.114c.048-.132.078-.21.089-.231a.837.837 0 0 1 .079-.1.328.328 0 0 0 .1-.218.152.152 0 0 0-.035-.071zm8.215 1.3.032.114h.107V399a.359.359 0 0 0 .1.185.551.551 0 0 0-.019.116v.068h.042a.124.124 0 0 1 .085.035.556.556 0 0 0 .072.05l.058.146a.529.529 0 0 1 .088.1 1.167 1.167 0 0 0 .081.118l.093-.024a1.332 1.332 0 0 0 .17.291 2.738 2.738 0 0 0 .245.313.436.436 0 0 1 .111.181.487.487 0 0 0 .083.134l.352.47a.322.322 0 0 1 .067.111.124.124 0 0 1-.028.068c.026.043.044.073.054.093a.262.262 0 0 0 .074.1.192.192 0 0 0 .071.021l.057.071h.039l.011-.011.074.1a2.241 2.241 0 0 0 .178.235l.107.093a.707.707 0 0 1 .1.16l.088.109.1.15.142.177c.024.085.036.13.039.134a.277.277 0 0 0 .139.054l.142.178.046.011v.017a.844.844 0 0 1 .1.082 3.586 3.586 0 0 1 .22.309l.263.289a.773.773 0 0 0 .153.181.267.267 0 0 0-.028.1c0 .017.038.063.117.138.191.22.3.347.335.377a1.222 1.222 0 0 0 .134.107l.026-.046v-.007s0-.016-.007-.039a.624.624 0 0 1-.018-.136 4.2 4.2 0 0 1 .036-.422 1.425 1.425 0 0 0 .014-.186.593.593 0 0 0 0-.067c-.018-.156-.028-.239-.028-.249a.271.271 0 0 1 .085-.164.569.569 0 0 1-.121-.306 1.073 1.073 0 0 1 .022-.114.078.078 0 0 0 0-.021c0-.007-.011-.076-.031-.206l.006-.282c-.019-.1-.028-.153-.028-.166s.011-.067.031-.164v-.015a.8.8 0 0 0-.009-.1.559.559 0 0 1-.011-.107.283.283 0 0 1 .011-.077.8.8 0 0 0 .024-.1l-.015-.068a.073.073 0 0 1 0-.018.064.064 0 0 1 0-.017.858.858 0 0 0 .018-.079v-.02l.011-.451-.011-.3-.007-.306a9.322 9.322 0 0 1-.038-.255.592.592 0 0 1 .038-.114v-.011c0-.025-.024-.057-.073-.092a.56.56 0 0 0 .017-.118 1.193 1.193 0 0 0-.028-.134.571.571 0 0 0-.011-.142c-.012-.045-.023-.087-.035-.124l.074-.074v-.04l-.124-.089a.186.186 0 0 1 .028-.075c.01-.009.093-.06.253-.152a.937.937 0 0 1 .211-.121c.028 0 .05.024.063.073a.746.746 0 0 1 .042.179c0 .01-.025.15-.077.424l.022.564a1.289 1.289 0 0 0-.057.3.249.249 0 0 0 .05.144l-.015.063-.011.594.025.078c-.057.015-.086.046-.086.1l.082.275v.007c0 .013-.034.029-.1.046s-.1.046-.1.089l.2.38-.025.246v.284l-.01.068.028.124.007.184.039.217a.208.208 0 0 1-.015.046l-.081.015v.061a.155.155 0 0 0 .061.114.578.578 0 0 1 .011.074l-.007.156.017.15.007.121.029.106-.2.35.207.12-.516.132.537.227a.606.606 0 0 0-.043.214c0 .017.01.073.028.171v.01c0 .042-.049.1-.146.171a.565.565 0 0 1-.263.124 2.885 2.885 0 0 1-.017-.12c-.01-.087-.035-.132-.075-.132a.364.364 0 0 0-.153.068.265.265 0 0 1-.107-.135l-.089-.149-.031-.079a.606.606 0 0 1-.107-.2.743.743 0 0 1 .011-.093.964.964 0 0 0-.193-.077 3.9 3.9 0 0 0-.142-.249.811.811 0 0 0-.146-.156.372.372 0 0 0 .032-.115.655.655 0 0 0-.081-.128 1.478 1.478 0 0 1-.15-.142 1.469 1.469 0 0 0-.107-.13.381.381 0 0 1 .042-.089v-.038h-.064a.147.147 0 0 0-.038-.085.481.481 0 0 0-.054-.042l-.054-.068c-.107-.021-.16-.066-.16-.135a.543.543 0 0 1 .011-.1l-.085-.018-.028-.074-.419-.526-.007-.032.156-.1v-.029a.207.207 0 0 0-.082-.032.233.233 0 0 0-.1.046 1.962 1.962 0 0 1-.173-.185.746.746 0 0 1-.164-.163.847.847 0 0 0-.138-.188.388.388 0 0 1-.046-.072.649.649 0 0 1-.064-.125c-.025-.077-.044-.121-.061-.131a.107.107 0 0 0-.05-.011.39.39 0 0 0-.054 0c-.021-.03-.041-.06-.061-.085a1.892 1.892 0 0 1-.134-.207c-.045-.012-.067-.022-.064-.028a1.278 1.278 0 0 0-.12-.167 4.27 4.27 0 0 0-.267-.342v-.029l.011-.011.067-.021a.393.393 0 0 0-.173-.164l-.035.046c-.072-.047-.109-.085-.114-.114a.215.215 0 0 1-.008-.074 1.633 1.633 0 0 1-.232-.192 6.899 6.899 0 0 0-.308-.313l-.029.024c-.045.081-.073.117-.085.107l-.21.1.2.086a.142.142 0 0 1 .093.131.262.262 0 0 1-.011.054 1.184 1.184 0 0 0-.057.271 1.042 1.042 0 0 1-.017.188.35.35 0 0 1-.053.092.5.5 0 0 1 .064.128q.013.039.05.167l-.019.267.032.242a.62.62 0 0 1-.035.136l-.061.01.033.107v.05a.181.181 0 0 0 .077.125 1.184 1.184 0 0 0-.018.185v.06c.015.266.021.4.021.416a.39.39 0 0 1-.021.085h-.1c.013.047.02.077.022.092.01.05.017.083.022.1l.025.079v.113l.021.1-.011.181a.363.363 0 0 0 .019.089.1.1 0 0 1-.079.033l-.015.013.015.232.079-.011c.015.08.026.142.031.184v.32l.017.15a2.8 2.8 0 0 0 .026.324.6.6 0 0 1 .011.107.584.584 0 0 1-.007.066l.024.15a.3.3 0 0 1-.054.136.166.166 0 0 0-.035-.036l-.4.232a.628.628 0 0 1-.107.046.313.313 0 0 1-.014-.071c0-.015.013-.1.039-.256l.007-.127.017-.132v-.181l.022-.043c.026-.054.044-.089.053-.1s.051-.036.153-.1a.724.724 0 0 0 .058-.142.048.048 0 0 0-.011-.029s-.063-.042-.181-.115a.1.1 0 0 1-.061-.089v-.014a.609.609 0 0 0 0-.071v-.075a2.251 2.251 0 0 1-.011-.128.3.3 0 0 1 .068-.153l-.093-.046c0-.052.013-.178.032-.377l.007-.181a.761.761 0 0 0 .013-.107v-.035a1.644 1.644 0 0 1-.028-.293 2.139 2.139 0 0 0-.019-.249v-.06c0-.012.025-.058.075-.1a.137.137 0 0 1-.031-.071.116.116 0 0 1 0-.028.742.742 0 0 0 .006-.083l-.05-.2v-.367c0-.028 0-.086.012-.173a.8.8 0 0 1 .02-.146l.046-.128a.085.085 0 0 0-.011-.024c-.09 0-.135-.035-.135-.1v-.135c0-.045 0-.114-.007-.206l.053-.042.011-.057c.06-.016.093-.038.1-.063a.174.174 0 0 0 .007-.057.387.387 0 0 0-.054-.171l-.075.05-.038-.038c.179-.058.269-.1.269-.118l-.3-.118.018-.3a3.245 3.245 0 0 1-.038-.291v-.042l-.1-.024a.241.241 0 0 0-.007-.065.106.106 0 0 1 0-.029.075.075 0 0 1 .019-.05.658.658 0 0 1 .12-.074l.04-.06.067-.057.217-.2a1.262 1.262 0 0 1 .176-.108z" transform="translate(-98.178 -337.125)" style="stroke:#a79684;stroke-miterlimit:22.926;stroke-width:.5px;fill:#a79684"/>
    <path data-name="Trazado 11" d="M212.5 405.216a1.288 1.288 0 0 1 .1-.188l.04-.1c.085-.1.129-.157.132-.164a.458.458 0 0 0 .017-.081.377.377 0 0 1 .046 0 .061.061 0 0 1 .046.019.548.548 0 0 1 .061.073l.056.093-.017.11.025.1-.011.107a.685.685 0 0 0 .117.246l.072-.028a.042.042 0 0 1 .024.011.509.509 0 0 1 .068.177.221.221 0 0 0 .074.107 2.928 2.928 0 0 0 .256.2l.451.178.128.078c.085.012.136.021.153.025s.068.029.167.074c.291.06.461.091.511.1l.392.015h.185a.244.244 0 0 0 .072-.007l.046-.011.1.029a1.776 1.776 0 0 1 .319-.061.59.59 0 0 1 .118.039h.05c.025 0 .056-.03.1-.089a.055.055 0 0 1 .046-.025.256.256 0 0 1 .054.007.309.309 0 0 0 .046 0c.007 0 .092-.027.256-.081l.088-.007.136-.064a2.266 2.266 0 0 0 .322-.115c.027-.016.111-.069.253-.16l.171-.149c.015-.016.062-.083.142-.2l.088-.074.067-.114a.745.745 0 0 0 .068-.093.308.308 0 0 0 .018-.083c-.007-.021.028-.089.107-.206a.3.3 0 0 0 .035-.109.333.333 0 0 0 .124-.026.147.147 0 0 0 .046-.1l-.013-.015h-.075l.046-.149a.157.157 0 0 1-.046-.081.341.341 0 0 1 .046-.1.8.8 0 0 0 .042-.2 1.93 1.93 0 0 0 .076-.263c0-.062.007-.126.015-.191h.077v-.054l-.118.017a3.521 3.521 0 0 0-.149-.473l.057-.068-.013-.036h.131c.173 0 .259-.019.259-.057s-.137-.073-.412-.075q-.033.071-.081.071a.187.187 0 0 1-.075-.046 3.023 3.023 0 0 0-.277-.125.585.585 0 0 0-.147-.074 1.9 1.9 0 0 0-.287-.057l-.081-.029a2.403 2.403 0 0 0-.2-.064h-.011v-.007l-.019-.011v.015c-.009.016-.015.025-.017.025l-.278-.065-.057.018c-.1.015-.159.022-.17.022a.089.089 0 0 1-.053-.029.074.074 0 0 0-.083-.07.23.23 0 0 0-.109.066.117.117 0 0 1-.079.023c-.023 0-.058 0-.1-.007s-.079-.007-.089-.007h-.238l-.16-.263c-.017-.028-.036-.042-.057-.042q-.085 0-.182.3a.563.563 0 0 0-.074-.338.121.121 0 0 0-.042-.028l-.05-.025a3.066 3.066 0 0 1-.285.383l-.146-.05a.962.962 0 0 1-.249-.052 1.78 1.78 0 0 0-.1-.05l-.089-.011-.042-.007h-.1l-.093-.046a1.546 1.546 0 0 1-.281-.142 1.365 1.365 0 0 1-.28-.335.432.432 0 0 1-.079-.21.585.585 0 0 1 .011-.1.261.261 0 0 1-.071-.163.269.269 0 0 0 .064-.079l.028-.214a1.179 1.179 0 0 1 .093-.2l.3-.338.149-.107.185-.15.114-.053.124-.064.559-.238a2.54 2.54 0 0 1 .252-.117c.147-.05.262-.085.346-.107l.455-.12.128-.026.65-.061.3-.028.149.011.182.015.1.024a3.978 3.978 0 0 1 .422.092l.029.132a2.487 2.487 0 0 1-.114.081l-.068.05a.669.669 0 0 1-.1.064.388.388 0 0 0-.105-.046h-.111l-.2-.068-.129.007a.548.548 0 0 1-.1-.114.279.279 0 0 0-.238-.111.305.305 0 0 0-.207.061.443.443 0 0 0-.092.138c-.032-.032-.054-.05-.068-.05h-.05a.736.736 0 0 0-.281.054l-.331.06-.3.1a1.936 1.936 0 0 0-.146-.032.461.461 0 0 0-.138.039v.085l-.366.14-.035.067a.512.512 0 0 0-.339.186.276.276 0 0 0-.092-.019c-.045 0-.086.039-.124.118a.5.5 0 0 0-.256.184.641.641 0 0 0-.157.374 1.98 1.98 0 0 0 .024.249.268.268 0 0 0 .092.153 1.031 1.031 0 0 0 .275.2l.167.046a.363.363 0 0 1 .238.22.136.136 0 0 0 .042.025.142.142 0 0 0 .075.021.361.361 0 0 0 .074-.024.085.085 0 0 1 .029 0 .373.373 0 0 1 .05 0 .2.2 0 0 1 .028-.1.331.331 0 0 0 .068.022l.166-.022.271.057.089-.011a.2.2 0 0 1 .036 0 1.247 1.247 0 0 1 .256.046l.014.1a.43.43 0 0 0 .1.015h.05a.113.113 0 0 1-.036-.065c0-.028.022-.042.065-.042l.12.007h.814a.069.069 0 0 1 .026.046.19.19 0 0 1-.022.081c.036.038.062.057.079.057s.056-.029.1-.089a.22.22 0 0 0 .074.018c.007 0 .068-.026.181-.075l.074.022a.986.986 0 0 1 .3.064l.132.067.441.142a.476.476 0 0 1 .068.048 1 1 0 0 0 .085.052.678.678 0 0 1 .188.132.251.251 0 0 1 .042.085.213.213 0 0 0-.032.092.279.279 0 0 0 0 .04l.114.009a.606.606 0 0 1 .089.342 2.021 2.021 0 0 1 .054.3v.334a.38.38 0 0 1-.058.16.047.047 0 0 0-.007.024.373.373 0 0 0 .022.1.194.194 0 0 0-.054.082l-.007.085a1.455 1.455 0 0 1-.138.27v.1l-.092.134-.007.018a.161.161 0 0 0-.007.031.192.192 0 0 0 .019.075 1.043 1.043 0 0 0-.107.146 2.237 2.237 0 0 1-.171.217l-.122.177-.081.071-.142.149a2.963 2.963 0 0 0-.167.177.071.071 0 0 1-.054.035l-.066-.031.031-.046-.184.118.024.1a3.741 3.741 0 0 1-.469.259 1.661 1.661 0 0 1-.334.135l-.211.024a4.182 4.182 0 0 0-.436.107l-.218.032-.1.017h-.124l-.146.011a2.318 2.318 0 0 0-.139-.038.931.931 0 0 0-.123 0 .225.225 0 0 1-.147-.046.228.228 0 0 1-.17.085.482.482 0 0 1-.114-.053.1.1 0 0 0-.057-.014h-.31a.167.167 0 0 0-.16-.124c-.035 0-.066.025-.092.077a2.088 2.088 0 0 0-.15-.067.435.435 0 0 0-.17-.032 1.328 1.328 0 0 0-.153-.063 3.293 3.293 0 0 1-.143-.036v-.092c-.068-.016-.1-.032-.109-.046s-.028-.036-.046-.1l-.06.015-.011.1a2.637 2.637 0 0 1-.259-.079l-.426-.345h-.011a.172.172 0 0 0-.016-.071.814.814 0 0 0-.08-.082 2.19 2.19 0 0 1-.146-.185 1.019 1.019 0 0 0-.14-.171zm10.51-5.159a.3.3 0 0 1 .054-.149h.068a.347.347 0 0 1 .1-.107.927.927 0 0 0 .12-.088.288.288 0 0 0 .086.021.57.57 0 0 0 .085-.018.175.175 0 0 1 .053-.007c.02 0 .137.011.355.032h.115a.261.261 0 0 0 .079-.013.489.489 0 0 0 .159.089h.046l.075.011a.362.362 0 0 1 .181-.06 1.073 1.073 0 0 1 .214.064l.15.024.156.038a.262.262 0 0 0 .058-.017.17.17 0 0 1 .081-.014l.733.007.028.042.2.015.054-.064q.23-.008.446-.032a.529.529 0 0 1 .085-.007.676.676 0 0 1 .092.007c.077.009.124.013.142.013s.184-.032.5-.1l.2-.024.16-.022a.943.943 0 0 1 .138.026.211.211 0 0 1-.056.124l-.04.042-.177.1a.725.725 0 0 0-.1.077c-.054.045-.095.067-.121.064h-.007l-.17-.015a.606.606 0 0 1-.136-.05h-.231c-.03 0-.1-.007-.22-.022l-.2.019h-.146l-.22.042-.26-.024h-.132l-.078-.007-.217.021-.185-.006-.085.031-.4-.022-.113.018-.086-.024a1.4 1.4 0 0 0-.306-.018h-.067c-.022 0-.068 0-.138.011l-.114-.025c-.017 0-.043.021-.079.06a.451.451 0 0 1 .057.207c0 .062.005.112.008.149-.048.052-.088.078-.122.078a.163.163 0 0 1-.046-.013.806.806 0 0 0-.011.092.054.054 0 0 0 .011.035.284.284 0 0 0 .057.05 1.012 1.012 0 0 1 .089.068.956.956 0 0 0-.025.138c0 .015.013.089.038.224a2.433 2.433 0 0 0 .271.035l.234.042.168.007.138.019a2.1 2.1 0 0 1 .282.021 1.008 1.008 0 0 0 .116.007.47.47 0 0 0 .107-.011 1.194 1.194 0 0 1 .142-.017l.14.028a.064.064 0 0 0 .025 0c.019 0 .081 0 .185-.011h.093c.061 0 .149 0 .262-.007a2.306 2.306 0 0 0 .4-.036.085.085 0 0 1 .024 0c.022 0 .06 0 .114.007a.82.82 0 0 1 .117.007v-.05c.066 0 .107-.012.121-.029l.018-.013.15.2a.9.9 0 0 1 .076-.122.349.349 0 0 1 .077-.062.289.289 0 0 1 .12-.06.527.527 0 0 1 .1.011c-.005.077-.014.12-.028.127s-.034.043-.1.078v.1a.341.341 0 0 0-.122.1.676.676 0 0 1-.12.024.127.127 0 0 1-.1-.046.806.806 0 0 0-.153-.149s-.046.058-.128.175a.033.033 0 0 1-.015 0 .066.066 0 0 1-.021-.007 1.031 1.031 0 0 0-.1-.032.641.641 0 0 1-.192.036c-.114-.015-.179-.022-.193-.022s-.087.009-.219.024l-.129-.028-.149-.007h-.078l-.259.036-.252-.04-.324.007-.107-.024H224.452l-.089.024-.138.007a1.9 1.9 0 0 1-.232.015.651.651 0 0 1 .046.212l.015.107v.313l.022.2a.244.244 0 0 1-.047.086l-.06.017-.011-.011a.327.327 0 0 0-.028.111.233.233 0 0 0 .011.058l.029-.015a.267.267 0 0 1 .081.083.463.463 0 0 1 .007.115.137.137 0 0 1-.068.1 1.278 1.278 0 0 0 .061.22.373.373 0 0 1 .011.11v.068l-.079.038a.484.484 0 0 0-.006.078c0 .044.036.088.109.128-.021.035-.03.057-.028.064l.031.159.007.14.015.085-.015.107v.131l-.019.079-.009.227v.092a.3.3 0 0 0 .017.083l-.131.077a.409.409 0 0 0 .038.153h.023a.133.133 0 0 1 .06-.031.124.124 0 0 1 .074.042.658.658 0 0 0-.046.171.9.9 0 0 0 .032.113v.252l.022.3a.394.394 0 0 1-.189.289.3.3 0 0 0 .024.142c.005.012.023.024.054.038a.525.525 0 0 1 .085.057l.14-.124h.156l.277-.053.125.009h.193c.006 0 .048.022.126.062a.061.061 0 0 0 .026 0 .245.245 0 0 0 .142-.068h.011l.011-.006.1.138.135-.115c.019-.028.035-.044.05-.046h.018l.4.028h.31c.006 0 .047-.007.12-.021a.09.09 0 0 1 .029 0h.039c.142.013.217.017.223.017s.05 0 .144-.017h.056l.637-.011h.05a.1.1 0 0 0 .042-.007.206.206 0 0 1 .035 0s.04.009.1.026a.96.96 0 0 0 .107 0l.042.124.1.018v-.121l.007-.011.036-.017a.753.753 0 0 0 .117.173 1.786 1.786 0 0 0 .2-.156.141.141 0 0 1 .089-.035.164.164 0 0 1 .1.053.52.52 0 0 1 .113-.022.246.246 0 0 0 .09-.028.081.081 0 0 1 .032-.064.4.4 0 0 1 .089-.035h.146c.209-.045.33-.073.363-.081a.283.283 0 0 1 .107-.05c.038 0 .057.027.057.081a.263.263 0 0 1-.032.1.7.7 0 0 0-.05.128c-.038.019-.058.034-.06.046l-.026.074a.44.44 0 0 1-.367.114l-.113.021-.193-.166-.252.192-.142-.028-.185-.007-.129-.022h-.166l-.2-.019a.381.381 0 0 0-.05.011l-.05-.035a.33.33 0 0 1-.147.053c-.011 0-.1-.015-.252-.042a2.028 2.028 0 0 0-.224-.007c-.072 0-.13 0-.175.007a1.186 1.186 0 0 1-.138.013l-.309-.05-.064.007a.39.39 0 0 1-.067-.007l-.057.061a.812.812 0 0 0-.089-.014l-.374.007h-.149l-.214.015a.336.336 0 0 1-.077-.019l.024-.06a.586.586 0 0 0-.181.028l-.011.1H225.01a.032.032 0 0 1-.015 0 .38.38 0 0 0-.156-.035.261.261 0 0 0-.092.011h-.007a1.009 1.009 0 0 1-.111-.125.089.089 0 0 0-.067-.038 1.246 1.246 0 0 0-.256.142.207.207 0 0 1-.121.035 1.121 1.121 0 0 1-.167-.035.113.113 0 0 0-.036 0c-.014 0-.089.011-.226.031l-.189.007a2.968 2.968 0 0 1-.271.057.589.589 0 0 1-.117-.021.558.558 0 0 1 0-.061.274.274 0 0 1 .028-.1.119.119 0 0 0 .025 0 .108.108 0 0 0 .077-.035 1.585 1.585 0 0 0 .132-.253v-.2s0-.006.009-.013a.654.654 0 0 0 .051-.072.425.425 0 0 1-.022-.081.16.16 0 0 1 0-.033c.012-.139.018-.3.018-.49a1.222 1.222 0 0 1 .046-.256.141.141 0 0 1 .057-.061.065.065 0 0 0 .032-.063.6.6 0 0 1 .018-.114l-.047.088h-.028a.333.333 0 0 0-.054-.1v-.242l.079-.1.06-.191c.007-.017.058-.046.154-.089l.017-.007c0-.019-.095-.051-.277-.1l.117-.053v-.046l-.074-.036a.187.187 0 0 0-.064-.1.77.77 0 0 1 .019-.17l-.044-.32.285-.21-.285-.367.217-.092-.224-.085.085-.046a.792.792 0 0 1 .024-.192.382.382 0 0 1-.077-.061.169.169 0 0 0-.042-.036 1.51 1.51 0 0 1-.015-.153.92.92 0 0 0-.011-.159.371.371 0 0 1 0-.04.176.176 0 0 1 .054-.1.058.058 0 0 0-.054-.038h-.028a.679.679 0 0 1-.011-.114.184.184 0 0 1 .061-.12.193.193 0 0 1-.083-.139v-.441a2.727 2.727 0 0 0-.021-.277 3.613 3.613 0 0 0-.026-.21.337.337 0 0 0-.05-.035v-.164l-.12.013v-.017l-.019-.011h-.064a.32.32 0 0 1-.092-.023z" transform="translate(-114.355 -337.88)" style="stroke:#a79684;stroke-miterlimit:22.926;stroke-width:.5px;fill:#a79684"/>
    <path data-name="Trazado 12" d="m244.031 406.53.017-.032q.11-.22.117-.242a1.144 1.144 0 0 0 .015-.174c.044-.241.07-.414.077-.516l-.054-.031-.011-.022c.166-.078.264-.128.293-.147a.088.088 0 0 0 .045-.074c0-.061-.1-.15-.309-.262l.079-.03a.478.478 0 0 1 .011-.128v-.007a.38.38 0 0 0-.028-.079.456.456 0 0 1-.029-.173l.053-.462v-.491a.182.182 0 0 1 .046-.1.341.341 0 0 0 .068-.118l-.118-.054a1.766 1.766 0 0 1-.025-.255.646.646 0 0 1 0-.071l.017-.255v-.007l-.039-.32s.012-.017.035-.036l.075-.064v-.05l-.1-.07c0-.051.007-.093.007-.129 0-.075-.005-.164-.015-.263l.07-.085a.219.219 0 0 1-.054-.107.269.269 0 0 1 .011-.071l-.064-.007-.006-.018.191-.309.015-.291.1-.115-.309-.3.007-.238c0-.062-.026-.093-.075-.093a.228.228 0 0 0-.081.017.074.074 0 0 1-.036-.057.128.128 0 0 1 .05-.1.1.1 0 0 1 .065-.02.636.636 0 0 1 .082.007.837.837 0 0 1 .159-.1 1.084 1.084 0 0 1 .189-.079c.023 0 .052.026.085.079a.241.241 0 0 1 .038 0 .324.324 0 0 1 .111.028l.075-.064c.095.007.156.013.188.018a1.321 1.321 0 0 0 .134.011l.356-.039c.007 0 .029 0 .068.01.092.015.318.026.678.036l.089.013.167.011h.053a.192.192 0 0 0 .107-.054 1.514 1.514 0 0 0 .248.033l.185.028.128.015.089.024h.132l.113.019a1.245 1.245 0 0 1 .3.081.142.142 0 0 1 .1.107l-.015.019h-.054v.092a.121.121 0 0 0 .071.032l.018-.014a.374.374 0 0 1 0-.043.117.117 0 0 1 .042-.074.121.121 0 0 1 .057.035l.035.025c.071.048.107.089.107.124a1.372 1.372 0 0 1-.032.271c.052 0 .077.02.077.05a.409.409 0 0 1-.068.131.459.459 0 0 1-.142.144.255.255 0 0 0-.042.05l-.259.249a3.134 3.134 0 0 0-.17.12.25.25 0 0 0-.05.1l-.121.079-.065-.015a.352.352 0 0 1-.092.061.336.336 0 0 0-.138.107.829.829 0 0 1-.114.115.418.418 0 0 1-.107.024l-.06.054-.1-.028a.527.527 0 0 1-.048.105.563.563 0 0 0-.2.083l.013.014a.6.6 0 0 1-.146.134.611.611 0 0 1-.149.042c-.023.005-.044.026-.061.065a2.716 2.716 0 0 0-.185.124c.052.009.079.018.081.025l.136.269.128.136a.325.325 0 0 1 .05.085l-.061.029.05.05h.04a.232.232 0 0 1 .146.074.964.964 0 0 1 .07.092l.083.111a.217.217 0 0 0-.075.1l.039.035.146.015a.392.392 0 0 1 .054.085.629.629 0 0 0 .086.093c.009.011.051.089.124.231a3.621 3.621 0 0 0 .306.391l.114.16a1.093 1.093 0 0 1 .135.179.41.41 0 0 1 .046.134v.057a.113.113 0 0 0 .015.058.861.861 0 0 0 .185.117.716.716 0 0 1 .167.156c.172.221.264.341.273.363a.367.367 0 0 1 .029.157.582.582 0 0 0 .167.107l.05-.011a.051.051 0 0 1 .036.011.706.706 0 0 1 .057.107.649.649 0 0 0 .131.085c.035.042.061.064.075.064a.6.6 0 0 0 .127-.05l.118.011a.171.171 0 0 0 .054-.018.079.079 0 0 1 .032.057.085.085 0 0 1-.023.054 1.461 1.461 0 0 1-.153.074l-.12.068a.51.51 0 0 1-.111.028 1.274 1.274 0 0 0-.221.068l-.107.039c-.058.04-.09.06-.092.06a.316.316 0 0 1-.085-.068.418.418 0 0 0-.1-.058 2.378 2.378 0 0 0-.171-.284.327.327 0 0 1-.024-.138l-.217-.132.06-.131a.668.668 0 0 0-.153-.139 2.34 2.34 0 0 1-.213-.295l.011-.09a.553.553 0 0 1-.173-.12.643.643 0 0 1-.21-.4.345.345 0 0 0-.167-.139.937.937 0 0 1-.214-.277.2.2 0 0 1-.113-.072 1.665 1.665 0 0 0-.132-.149.22.22 0 0 0-.032-.146c-.052-.073-.092-.111-.121-.111a.4.4 0 0 0-.07.007 1.45 1.45 0 0 1-.115-.181l-.252-.328a1.623 1.623 0 0 0-.214-.249q-.229-.21-.3-.21s-.156.057-.457.171h-.015a.7.7 0 0 1-.1-.007.8.8 0 0 1-.042.135.137.137 0 0 0-.011.04l.007.088v.1l.021.16-.017.111a.442.442 0 0 0-.007.085c0 .048 0 .1.007.15s0 .142.006.306l.026.1v.288l.015.16a.151.151 0 0 1-.026.075.224.224 0 0 0-.031.1l-.093.035.025.173a.169.169 0 0 1 .089.03.311.311 0 0 0-.021.1 1.05 1.05 0 0 0 .028.111.12.12 0 0 1 0 .032V405.604a.137.137 0 0 0-.085.124c0 .047.031.075.1.081a.28.28 0 0 0-.015.057l.007.217a.307.307 0 0 1-.05.138.232.232 0 0 1-.1.086.594.594 0 0 0-.089.056.41.41 0 0 0-.053.072l-.125-.018a.325.325 0 0 1-.277.16.257.257 0 0 1-.1-.035zm.6-4.91.067-.035.081.081c0 .1 0 .2.011.32v.138l.011.182a1.415 1.415 0 0 0-.022.277l-.06.022v.061h.013a.366.366 0 0 1 .09.021.264.264 0 0 1 .1-.057c.016-.005.056-.014.12-.028a.158.158 0 0 0 .068.024.173.173 0 0 0 .067-.021l.019-.033a1.171 1.171 0 0 0 .263-.073l.1-.018.2-.124a2.247 2.247 0 0 0 .224-.128l.707-.38a2.641 2.641 0 0 0 .284-.142 1.281 1.281 0 0 0 .157-.149l.142-.107c.065-.065.106-.1.125-.122s.049-.022.1-.042a.692.692 0 0 0 .113-.146.37.37 0 0 0 .09-.079.287.287 0 0 0 .032-.124.221.221 0 0 0-.007-.054.274.274 0 0 1-.017-.071.178.178 0 0 1 .006-.035l.072-.046v-.018l-.128-.046-.061-.1v-.046a.049.049 0 0 0-.011-.019.081.081 0 0 1-.022-.056.379.379 0 0 1 0-.044l-.109-.032-.007.054a1.069 1.069 0 0 1-.11-.036 1.586 1.586 0 0 0-.181-.057.237.237 0 0 1-.117-.06.41.41 0 0 1-.075.018l-.2-.064h-.273a.191.191 0 0 1-.1-.05.977.977 0 0 1-.227.021 1.2 1.2 0 0 1-.121.033 1.049 1.049 0 0 1-.16-.058c-.005 0-.051-.012-.138-.028a.738.738 0 0 0-.3.109.241.241 0 0 1-.12.036c-.017 0-.028 0-.033-.011l-.12-.175-.125.05a.766.766 0 0 0-.192.025.159.159 0 0 0-.074.1c0 .007-.006.1-.011.274a.621.621 0 0 1-.05.152l-.05-.017-.019.057a.109.109 0 0 0 .032.077.8.8 0 0 1 .107.125v.26a.169.169 0 0 1-.021.068.245.245 0 0 0-.025.117l-.07.067a.219.219 0 0 1-.054.147l.01.013zm7.857-1.7a2.329 2.329 0 0 0 .363-.189.478.478 0 0 1 .23-.05.591.591 0 0 1 .317.114l.138.017c.126.019.23.033.313.04l.427.031.153.018h.073c.134-.014.232-.022.3-.022.034 0 .085 0 .153.007l.5.028a.632.632 0 0 0 .142-.039.114.114 0 0 1 .046-.011l.1.026a1.109 1.109 0 0 1 .214.028l.142.05a.5.5 0 0 1 .227-.081c.017 0 .1.016.259.046l.114-.022a1.226 1.226 0 0 0 .128.025h.352l.192-.011h.067c.081 0 .125 0 .132.007l.156.05.017-.011.046-.1a1.44 1.44 0 0 0 .164.015l.235-.042h.007c.007.011.034.068.079.17l.06-.1c0-.007.046-.01.132-.01 0 0 .069-.031.191-.093a.061.061 0 0 1 .026-.006.041.041 0 0 1 .042.024l.077.171.186-.2.077-.018.089-.035a.1.1 0 0 1 .086.063l-.075.064-.013.061a.268.268 0 0 0-.089.05l-.085.115a.4.4 0 0 1-.092.056.374.374 0 0 1-.164.04.425.425 0 0 1-.073-.007 1.156 1.156 0 0 0-.151-.025h-.067c-.064.01-.1.015-.114.015a.745.745 0 0 1-.149-.025.95.95 0 0 0-.168-.017l-.269.032a1.112 1.112 0 0 1-.121.007l-.394-.022-.138.022-.228-.131-.1.131-.07-.026-.1-.006-.166-.015-.042.015a.341.341 0 0 1-.09.013c-.015 0-.093-.006-.23-.017h-.085a.2.2 0 0 0-.1.025.188.188 0 0 1 .021.032c0 .016-.043.06-.128.131a1.324 1.324 0 0 0-.111.175c-.01.016-.04.056-.092.12a.246.246 0 0 0-.061.1c0 .067.073.126.221.179.07.025.107.048.107.067a.768.768 0 0 1-.044.071.28.28 0 0 0-.032.1h-.06l.007.114.085.046a.239.239 0 0 1 .036.1 1.091 1.091 0 0 1-.015.135.777.777 0 0 0-.007.107q0 .061.026.338l.009.178c0 .073.006.135.011.185s.007.1.007.1c0 .047-.015.077-.042.089a.316.316 0 0 1-.05.018.221.221 0 0 0-.071.042v.022l-.011.011.082.067v.118l.1.046q-.31.164-.31.324c0 .1.1.185.3.259a.142.142 0 0 0-.046.085c0 .021 0 .073.015.157v.149l.038.017a1.531 1.531 0 0 0-.025.207l.011.14c.005.125.009.2.011.216s.015.051.035.118a.642.642 0 0 0-.054.171v.073l-.01.011c-.086.012-.128.04-.128.085l.022.079.117-.033a.3.3 0 0 0 .015.1.633.633 0 0 1 .022.075l-.015.064a.241.241 0 0 0 0 .046c0 .018.006.119.019.3a2.885 2.885 0 0 1-.036.327.867.867 0 0 0-.007.114 1.28 1.28 0 0 0 .047.2.46.46 0 0 1-.036.146.57.57 0 0 1-.124.042.3.3 0 0 0-.1.046l-.054.058a.305.305 0 0 0-.1.007q-.206.127-.269.156a.2.2 0 0 1-.06-.118 1.229 1.229 0 0 1 .031-.127v-.1l.025-.1.015-.189.013-.107a.557.557 0 0 1 .015-.164.387.387 0 0 1 .107-.122.206.206 0 0 1-.072-.124l.011-.157v-.184c.007-.093.011-.165.011-.218l.053-.064a.568.568 0 0 1 0-.057.693.693 0 0 1 .011-.1l-.057-.054h-.015l.022-.074v-.58a.536.536 0 0 1 .013-.12.791.791 0 0 0 .019-.153 1.338 1.338 0 0 0-.021-.136l-.018-.163c0-.046-.007-.071-.007-.079s.016-.052.046-.142a.308.308 0 0 1 .011-.093c.007-.019.039-.034.1-.042v-.064l-.114.025a.606.606 0 0 1-.025-.117.623.623 0 0 1 .017-.111q.007-.033.018-.1a.723.723 0 0 1-.081-.036l.01-.086v-.682c0-.04.046-.081.136-.122s.135-.073.135-.1-.046-.044-.138-.1a.746.746 0 0 1-.142-.107c.055-.025.081-.05.081-.073 0 0-.013-.048-.039-.132a.112.112 0 0 1 0-.028.668.668 0 0 1 .007-.09.365.365 0 0 1-.1-.256.263.263 0 0 1 .054-.117l-.04-.121-.007-.017c0-.064.109-.143.317-.235.022-.01.032-.019.032-.028a2.028 2.028 0 0 0-.331-.082.045.045 0 0 1-.039-.05.114.114 0 0 1 .015-.043 1.006 1.006 0 0 0-.346-.057c-.048 0-.116 0-.209-.009h-.011c-.01 0-.067.007-.171.024l-.273-.021a.27.27 0 0 0-.075.025.184.184 0 0 0-.1-.043h-.089l-.188-.064-.057.026-.068.028-.121.057a1.472 1.472 0 0 0-.166-.031 1.84 1.84 0 0 0-.189.021H252.851a1.383 1.383 0 0 1-.185-.035.149.149 0 0 0-.042 0 2.1 2.1 0 0 0-.21.019.134.134 0 0 1-.007-.019c-.005 0-.007-.008-.007-.011s.017-.041.05-.074a.3.3 0 0 0 .039-.071z" transform="translate(-125.013 -337.937)" style="stroke:#a79684;stroke-miterlimit:22.926;stroke-width:.5px;fill:#a79684"/>
    <path data-name="Trazado 13" d="M270.047 403.967a1.585 1.585 0 0 0 .025-.232.311.311 0 0 1 .118-.208l.017-.086h.064l.026-.024a.819.819 0 0 0-.144-.153 1.03 1.03 0 0 0 .256-.185.378.378 0 0 1 .111-.085 1.193 1.193 0 0 1-.313-.088.808.808 0 0 1 .068-.1.752.752 0 0 1-.008-.1.657.657 0 0 1 .065-.167l.022-.085a1.052 1.052 0 0 0 .1-.168l.107.023a.463.463 0 0 0 .021-.118 1.936 1.936 0 0 0-.061-.206l.061-.127.057-.206.046-.075a2.558 2.558 0 0 0 .132-.352l.028-.071.028-.071.083-.153.064-.146.156-.324.032-.1a.264.264 0 0 0 .032-.089.578.578 0 0 0 0-.064l.018-.021a.644.644 0 0 0-.085-.014.084.084 0 0 1-.068-.032l-.029-.064a1.882 1.882 0 0 1 .445-.249 1.217 1.217 0 0 1 .405-.122.149.149 0 0 1 .057.019.81.81 0 0 1-.132.374l-.22.376-.029.085c-.009.017-.043.03-.1.04.052.013.079.035.079.063a.215.215 0 0 1-.04.114q-.011.019-.127.157a.361.361 0 0 0-.054.128.767.767 0 0 1-.068.156h-.011a.12.12 0 0 1-.071-.035h-.011l-.042.092-.093.042a.339.339 0 0 0 .05.157l.085-.042.019.018a.513.513 0 0 1-.019.077 1.055 1.055 0 0 0-.035.129.233.233 0 0 0 .024.074l-.124.156-.2.651a.75.75 0 0 1-.1.232h-.068a.191.191 0 0 0 .028.1c0 .007.021.022.06.046v.035a.173.173 0 0 1-.042.089.17.17 0 0 0-.032.064 1.189 1.189 0 0 0 0 .132 1.984 1.984 0 0 0-.026.234 3.617 3.617 0 0 1-.064.37c0 .025-.006.045-.006.056V404.065a.724.724 0 0 1-.024.157l-.039.024a.323.323 0 0 1 .011.068c0 .01-.008.061-.025.153l.035.036h.086a.316.316 0 0 1 .024.093.467.467 0 0 1-.007.06.891.891 0 0 0 0 .1.846.846 0 0 0 .036.26l.064.21a.231.231 0 0 1 .011.075 1.306 1.306 0 0 1-.021.173.221.221 0 0 0 .1.03l.042.077.081.018a.99.99 0 0 0 .234.391 1.372 1.372 0 0 0 .277.188.427.427 0 0 0 .1.093.42.42 0 0 0 .177.042.529.529 0 0 0 .1-.018l.032.085a.68.68 0 0 0 .111.011 1.5 1.5 0 0 0 .205-.039.369.369 0 0 1 .075-.007l.092.007.132.007.05.013.128-.052.081-.025c.1-.033.172-.057.224-.072l.024-.05a.441.441 0 0 0 .182-.1l.124.04a.161.161 0 0 1 .15-.111h.047a.422.422 0 0 1 .078-.071l.127-.05a2.05 2.05 0 0 1 .224-.15l.054.042.127-.057c.023-.05.039-.076.05-.081l.107-.05.14-.085a1.385 1.385 0 0 0 .153-.046l.131-.079c.03-.095.079-.142.146-.142a.4.4 0 0 1 .085.01v-.107a.172.172 0 0 0 .086-.035.993.993 0 0 1 .234-.2l.121-.044a.735.735 0 0 0 .131-.188c.077-.083.128-.142.157-.177l-.026-.079.015-.142v-.132c0-.057-.007-.08-.007-.09l.018-.291v-.327c.075-.034.114-.062.114-.086s-.02-.035-.06-.07v-.075l-.039-.011a.383.383 0 0 1-.019-.107.286.286 0 0 1 .036-.089.313.313 0 0 0 .036-.135l-.15-.057a.659.659 0 0 0 .052-.267 1.866 1.866 0 0 0-.017-.266 2.533 2.533 0 0 1-.032-.256 1.342 1.342 0 0 1 .029-.281c.054-.04.081-.075.081-.107a.078.078 0 0 0-.013-.05l-.1-.093a.12.12 0 0 1-.044-.092c.1-.037.191-.075.285-.114l-.3-.07.011-.217-.033-.107-.007-.2-.042-.334a1.326 1.326 0 0 1 .029-.161 5.39 5.39 0 0 0-.075-.072c-.04-.03-.06-.057-.06-.077a.091.091 0 0 1 .021-.054.913.913 0 0 1 .142-.079l.324-.2a.64.64 0 0 1 .07-.017c.026-.007.077-.017.153-.029a.236.236 0 0 1 .054.121l-.05.384a1.54 1.54 0 0 0-.007.174 1.329 1.329 0 0 0 .026.227.252.252 0 0 1 0 .04c0 .038 0 .115-.007.234a1.378 1.378 0 0 1-.042.2.163.163 0 0 0-.007.05.236.236 0 0 0 .05.111.05.05 0 0 1 .01.032.382.382 0 0 1-.017.079.869.869 0 0 1-.029.1.8.8 0 0 1-.1.066.087.087 0 0 0-.042.072.167.167 0 0 0 .007.042h.015a.632.632 0 0 0 .111-.015l.025.022-.025.092.074.011c.007.057.015.226.022.508l.01.191a1.834 1.834 0 0 0-.032.387.262.262 0 0 0 .046.132.072.072 0 0 1 .015.046.212.212 0 0 1 0 .038c0 .07-.007.113-.007.131v.335a.266.266 0 0 0 .022.078.141.141 0 0 1 0 .025.43.43 0 0 1-.009.085 1.289 1.289 0 0 0-.011.178c0 .025 0 .192.015.5a1.183 1.183 0 0 1-.022.146c-.08.028-.121.066-.121.111a.147.147 0 0 0 .05.12.4.4 0 0 0 .118.039.068.068 0 0 1 .054.071l-.029.107v.025a1.664 1.664 0 0 0 .013.213.63.63 0 0 1-.2.125v.011a.659.659 0 0 0 .15.1l.022.077.039.015a.916.916 0 0 1 .011.1 1.651 1.651 0 0 0 .035.192.484.484 0 0 0 .032.134l.061.015.021.206a.323.323 0 0 0-.114.06l-.1.1-.128.06-.256.14a.2.2 0 0 1-.082.017.652.652 0 0 1-.1-.01v-.029a.822.822 0 0 1 .04-.164.519.519 0 0 0 .021-.149 1.678 1.678 0 0 0-.05-.3.4.4 0 0 1 0-.074 1.2 1.2 0 0 1 .033-.186l.006-.156.011-.131-.032-.227a.113.113 0 0 0-.033-.057 12.209 12.209 0 0 1-.401.235c-.14.062-.21.093-.212.1l-.189.149-.306.16a.4.4 0 0 0-.093.039c-.007 0-.022.025-.046.072a1 1 0 0 0-.138.05L274 406l-.33.146a.874.874 0 0 1-.267.107h-.06l.018.1a.9.9 0 0 0-.295.124.41.41 0 0 1-.217.09c-.02 0-.051-.021-.1-.061a1.451 1.451 0 0 0-.164.077.157.157 0 0 0-.057.079.345.345 0 0 0-.077-.011 2.183 2.183 0 0 0-.263.077l-.227-.181c-.022 0-.045.055-.068.177a.264.264 0 0 0-.175-.06l-.063.1a2.344 2.344 0 0 1-.453-.121l.033-.078a.226.226 0 0 0-.064-.011.219.219 0 0 0-.093.043 2.472 2.472 0 0 0-.234-.164s-.069-.072-.193-.21a1.025 1.025 0 0 1-.166-.127 4 4 0 0 1-.068-.185.307.307 0 0 0-.05-.09.277.277 0 0 1-.054-.081.11.11 0 0 1 .019-.054.178.178 0 0 1 .113.054.646.646 0 0 0 .061-.168l-.013-.015-.011.011h-.111l-.035-.035-.011.007h-.093l-.025-.122c-.045-.031-.07-.054-.074-.07l-.015-.068a.272.272 0 0 1-.039-.1.1.1 0 0 1 .05-.081.359.359 0 0 1-.068-.111l-.015-.157a1.1 1.1 0 0 1-.032-.164c0-.017.009-.12.026-.313a.475.475 0 0 1 .01-.092l.043-.065a.185.185 0 0 0 .029-.105.151.151 0 0 0-.076-.122zm10.634 2.468a.4.4 0 0 1 .089-.089c.034-.024.09-.068.167-.132a.276.276 0 0 1-.007-.06.061.061 0 0 1 .022-.04c.077-.106.159-.212.242-.319a.9.9 0 0 1 .149-.16l-.3-.072.306-.2-.3-.291.011-.121.006-.1a.574.574 0 0 0 .054-.185v-.114a.1.1 0 0 1 .068-.089l.035-.022.061.011h.011a.074.074 0 0 0 .011-.035c0-.019-.029-.054-.086-.1v-.1l-.1.026-.028-.029a.527.527 0 0 0 .025-.107l-.011-.164.017-.312c0-.012-.01-.07-.032-.175a.663.663 0 0 0 .028-.153h.05a.44.44 0 0 1 .044-.185c-.079-.012-.118-.035-.118-.068a.325.325 0 0 1 .015-.074 1.077 1.077 0 0 0 .007-.151v-.195a.288.288 0 0 0-.006-.067.187.187 0 0 1-.015-.053.128.128 0 0 1 .021-.05h.064l.015-.057-.057-.015v-.024a.2.2 0 0 1 .028-.087l.048-.063s.013-.011.042-.018l.011-.046-.082-.035.029-.1a.174.174 0 0 1-.09.032q-.05 0-.05-.075s0-.054.015-.149l-.018-.285v-.299a.823.823 0 0 1 .032-.2l-.042-.046v-.309c.014-.005.022-.009.023-.013s0-.032 0-.087a.333.333 0 0 1-.05-.125v-.042a.207.207 0 0 1-.05-.077v-.138l-.014-.136a.234.234 0 0 0-.056-.113l-.064-.015-.036-.107c.052-.027.087-.044.1-.054a.476.476 0 0 1 .171-.05l.061-.028.068-.033.056-.057.044-.017a.791.791 0 0 1 .273-.079c.052 0 .079.023.079.068v.107l.021.089a.2.2 0 0 0-.046.111 1.016 1.016 0 0 0 .007.1c0 .042.006.105.011.188h.011v.026a.235.235 0 0 1-.136.006l-.013.015a.135.135 0 0 1-.083.1l.079.122.089-.015.054.092h.035l.011.007a.952.952 0 0 1-.168.2l-.042.234-.167.185.05.138.033.47c.007.016.047.04.12.07s.1.058.1.09v.006a.41.41 0 0 1-.019.057l-.053.011a.346.346 0 0 1 .081.263c0 .048-.036.093-.111.135a.757.757 0 0 0 .057.1.36.36 0 0 1 .054.16s-.009.041-.031.117v.029a.278.278 0 0 0 0 .061V403.585a.11.11 0 0 1-.011.044v-.015l-.074.054a.3.3 0 0 0 .093.185l-.011.038.015.505v.121a2.287 2.287 0 0 1-.053.281l-.011.189-.036.054a.4.4 0 0 0-.007.066 2.186 2.186 0 0 0-.025.164l.082-.011a.915.915 0 0 1 .036.118l-.007.559a.094.094 0 0 0 .079.1.24.24 0 0 1 .105.053.569.569 0 0 1 .061 0 .543.543 0 0 1 .114.025l.138.013.239.054h.209l.114.16.3-.142.124.021.1.011.1.033.131-.022a.226.226 0 0 1 .04 0 1.208 1.208 0 0 1 .159.032c.114-.018.175-.028.182-.028.032 0 .092 0 .177.014h.086a.906.906 0 0 0 .16-.025l.174-.015a3.514 3.514 0 0 1 .356-.046.333.333 0 0 0 .107-.017.25.25 0 0 1 .074-.018.779.779 0 0 1 .1.168.013.013 0 0 0 .01 0q.051 0 .1-.093a.348.348 0 0 0 .026-.159c.08-.022.133-.039.16-.05a1.038 1.038 0 0 1 .273-.1h.019a.278.278 0 0 1-.026.134l-.056.074-.125.182a1.357 1.357 0 0 0-.121.131h-.085l-.039.071-.224-.171-.476.175-.029-.011a1.031 1.031 0 0 0-.242-.018h-.011c-.018 0-.212.013-.579.04l-.235-.032-.132.022a.211.211 0 0 1-.146-.064c-.079-.071-.118-.107-.121-.107l-.369.142-.09-.017-.085-.007-.089-.011a5.183 5.183 0 0 1-.289-.014l.04-.025h-.149l-.022.074a.511.511 0 0 1-.089-.054.367.367 0 0 0-.125-.042.385.385 0 0 1-.256.1 1.251 1.251 0 0 1-.2-.021.334.334 0 0 1-.188.06.579.579 0 0 1-.121-.025 2.017 2.017 0 0 1-.249-.057zm8.533 0a.414.414 0 0 1 .088-.089c.034-.024.09-.068.168-.132a.241.241 0 0 1-.008-.06.064.064 0 0 1 .022-.04c.078-.106.16-.212.242-.319a.889.889 0 0 1 .15-.16l-.3-.072.306-.2-.3-.291.011-.121.006-.1a.57.57 0 0 0 .054-.185v-.114a.1.1 0 0 1 .068-.089l.035-.022.061.011h.01a.076.076 0 0 0 .011-.035c0-.019-.029-.054-.087-.1v-.1l-.1.026-.028-.029a.577.577 0 0 0 .025-.107l-.011-.164.017-.312c0-.012-.01-.07-.031-.175a.693.693 0 0 0 .028-.153h.05a.44.44 0 0 1 .044-.185c-.079-.012-.118-.035-.118-.068a.315.315 0 0 1 .015-.074 1.045 1.045 0 0 0 .007-.151v-.195a.253.253 0 0 0-.007-.067.215.215 0 0 1-.015-.053.124.124 0 0 1 .021-.05h.064l.015-.057-.057-.015v-.024a.192.192 0 0 1 .028-.087l.047-.063s.013-.011.042-.018l.011-.046-.083-.035.029-.1a.172.172 0 0 1-.089.032c-.033 0-.05-.025-.05-.075l.015-.149-.019-.285v-.299a.829.829 0 0 1 .033-.2l-.042-.046v-.309c.013-.005.022-.009.023-.013s0-.032 0-.087a.333.333 0 0 1-.05-.125v-.042a.2.2 0 0 1-.05-.077v-.138a4.95 4.95 0 0 0-.015-.136.232.232 0 0 0-.056-.113l-.065-.015-.036-.107c.053-.027.088-.044.1-.054a.483.483 0 0 1 .171-.05l.061-.028.068-.033.056-.057.044-.017a.788.788 0 0 1 .273-.079c.052 0 .079.023.079.068v.107l.021.089a.2.2 0 0 0-.046.111 1.019 1.019 0 0 0 .007.1c0 .042.006.105.011.188h.011v.026a.393.393 0 0 1-.076.013.386.386 0 0 1-.06-.007l-.014.015a.133.133 0 0 1-.082.1l.079.122.089-.015.053.092h.035l.011.007a.968.968 0 0 1-.168.2l-.042.234-.167.185.05.138.032.47a.29.29 0 0 0 .12.07c.069.029.1.058.1.09v.006a.479.479 0 0 1-.018.057l-.054.011a.343.343 0 0 1 .081.263c0 .048-.036.093-.111.135a.654.654 0 0 0 .057.1.36.36 0 0 1 .054.16s-.01.041-.032.117v.029a.257.257 0 0 0 0 .061v.673a.5.5 0 0 1 0 .057.112.112 0 0 1-.011.044v-.015l-.074.054a.3.3 0 0 0 .092.185l-.011.038.015.505v.121a2.281 2.281 0 0 1-.053.281l-.011.189-.035.054a.283.283 0 0 0-.007.066 2.274 2.274 0 0 0-.026.164l.083-.011a.85.85 0 0 1 .035.118l-.007.559a.094.094 0 0 0 .079.1.238.238 0 0 1 .106.053.559.559 0 0 1 .06 0 .545.545 0 0 1 .115.025l.138.013.239.054h.208l.115.16.295-.142.125.021.1.011.1.033.131-.022a.227.227 0 0 1 .04 0 1.19 1.19 0 0 1 .159.032c.115-.018.175-.028.182-.028.033 0 .093 0 .177.014h.086a.9.9 0 0 0 .16-.025l.173-.015a3.561 3.561 0 0 1 .355-.046.339.339 0 0 0 .107-.017.245.245 0 0 1 .074-.018.779.779 0 0 1 .1.168.012.012 0 0 0 .01 0c.034 0 .066-.031.1-.093a.358.358 0 0 0 .025-.159c.08-.022.134-.039.16-.05a1.04 1.04 0 0 1 .273-.1h.018a.273.273 0 0 1-.025.134l-.056.074-.124.182a1.379 1.379 0 0 0-.122.131h-.085l-.039.071-.224-.171-.475.175-.029-.011a1.031 1.031 0 0 0-.242-.018h-.011c-.018 0-.212.013-.578.04l-.236-.032-.131.022a.21.21 0 0 1-.146-.064c-.079-.071-.119-.107-.121-.107l-.369.142-.089-.017-.085-.007-.088-.011a5.183 5.183 0 0 1-.289-.014l.04-.025h-.15l-.022.074a.506.506 0 0 1-.089-.054.364.364 0 0 0-.125-.042.383.383 0 0 1-.255.1 1.244 1.244 0 0 1-.2-.021.335.335 0 0 1-.188.06.581.581 0 0 1-.122-.025 2 2 0 0 1-.247-.057z" transform="translate(-133.797 -337.876)" style="stroke:#a79684;stroke-miterlimit:22.926;stroke-width:.5px;fill:#a79684"/>
    <path data-name="Trazado 14" d="M325.221 406.255a.41.41 0 0 1 .031-.054l.1-.064a.91.91 0 0 0 .144-.171.628.628 0 0 1 .081-.066.246.246 0 0 0 .068-.083v-.056a.23.23 0 0 1 .1-.161 1.6 1.6 0 0 0 .164-.171l.2-.356a.383.383 0 0 1 .067-.022l.015-.013a.68.68 0 0 1 0-.068.129.129 0 0 1 .007-.054l.089-.117.352-.547.007-.036a.09.09 0 0 0-.042-.021.2.2 0 0 0-.039.007.178.178 0 0 1-.036 0h-.067a.363.363 0 0 1-.022-.1.243.243 0 0 1 .046-.081.562.562 0 0 1 .061-.142l.085-.121a.308.308 0 0 1 .1.011l.157.054.011-.007a.17.17 0 0 0-.007-.138.233.233 0 0 0 .072-.061l.07-.134a.63.63 0 0 1 .14-.153.289.289 0 0 1 .023-.1 1.366 1.366 0 0 1 .137-.129 2.69 2.69 0 0 0 .082-.191 3.88 3.88 0 0 1 .2-.306l.234-.455.1-.1a.237.237 0 0 1 .013-.074l.1-.146a.042.042 0 0 0 .007-.025.273.273 0 0 0-.007-.057.338.338 0 0 0 .068-.1.924.924 0 0 1 .068-.122l.07.1a.175.175 0 0 0 .019-.06.22.22 0 0 0-.029-.086.68.68 0 0 1 .053-.107.466.466 0 0 0 .068-.117.338.338 0 0 0 0-.079.386.386 0 0 1 .038-.077 1.519 1.519 0 0 0 .071-.175 2.1 2.1 0 0 1 .039-.1l.153-.015-.015-.046-.092-.043v-.057a.282.282 0 0 0 .079-.1l-.04-.036v-.015a.511.511 0 0 0 .1-.138c.032-.057.058-.1.083-.142a.182.182 0 0 1-.029-.083v-.134l.287-.2.068.05a.711.711 0 0 0 .042-.089c.017-.041.034-.06.05-.06a.133.133 0 0 1 .057.015.17.17 0 0 1 .072-.111.214.214 0 0 1 .127-.054c.071 0 .111.086.118.26a1.654 1.654 0 0 1 .042.234.7.7 0 0 0 .093.249 1.279 1.279 0 0 1 .046.242v.086l-.142.074a.207.207 0 0 0 .06.089c.013 0 .066.022.161.05.044.015.092.085.142.21a.78.78 0 0 1 .054.16.248.248 0 0 1-.042.089c.038.039.063.062.074.071a.48.48 0 0 1 .1.1l.044.111.07.177a.405.405 0 0 1 .019.117.41.41 0 0 1 .124.234l.011.1.079.122.149.3-.082.05a.223.223 0 0 0 .057.1l.053.011-.011.077a1.014 1.014 0 0 1 .374.673 1.511 1.511 0 0 0 .153.331c.127.242.2.383.213.422a.7.7 0 0 0 .078.153l.22.488-.007.1c.142.075.214.148.214.216 0 .034-.035.067-.1.1a.152.152 0 0 0 .057.075.338.338 0 0 0 .071.028c.034.012.069.056.107.132a1.9 1.9 0 0 1 .092.256c.1.157.166.258.192.306a.147.147 0 0 0-.067.113v.054a1 1 0 0 1-.171.064.6.6 0 0 1-.124.011 1.227 1.227 0 0 0-.25.085 1.738 1.738 0 0 1-.109-.3.482.482 0 0 0-.068-.16 1.881 1.881 0 0 1-.1-.3.458.458 0 0 1 0-.057.237.237 0 0 1-.075-.107.882.882 0 0 1-.007-.11.464.464 0 0 1-.007-.054.286.286 0 0 1 .036-.117l-.107-.1a.858.858 0 0 1 .061-.071c.023-.019.035-.035.035-.05a.183.183 0 0 0-.007-.05l-.17.015a1.132 1.132 0 0 1-.117-.182 1.726 1.726 0 0 1-.057-.224l-.054-.124a1.436 1.436 0 0 0-.064-.269.206.206 0 0 0-.2-.129c-.083 0-.128.089-.138.267a.145.145 0 0 1-.035.011.177.177 0 0 1-.1-.05.577.577 0 0 0-.214-.093.539.539 0 0 1-.15-.052.5.5 0 0 0-.206-.061 1.442 1.442 0 0 0-.2.035l-.1-.018-.115.011h-.1l-.1.015h-.362l-.221-.05-.106.021a1.454 1.454 0 0 0-.124-.032 1.359 1.359 0 0 0-.171.039 1.328 1.328 0 0 1-.2.032l-.1-.113a.758.758 0 0 0-.226.081 1.052 1.052 0 0 1-.157.029l-.057.006a.8.8 0 0 1-.107-.009.77.77 0 0 0-.157-.019.881.881 0 0 0-.177.032.925.925 0 0 1-.157.029c-.026.042-.042.07-.05.085a1.108 1.108 0 0 1-.14.214c-.04.064-.1.158-.166.28l-.064-.013a.072.072 0 0 0-.028.052.531.531 0 0 0 .009.075c0 .015 0 .034.007.061a.644.644 0 0 0-.074.1l-.171.345c-.03.05-.064.1-.1.163l-.032.05-.2.124a.047.047 0 0 0-.015.04c0 .025.026.06.081.107l-.054.166a.483.483 0 0 0-.117.057.385.385 0 0 0-.1.157.7.7 0 0 0-.132.064.157.157 0 0 1-.074.035.3.3 0 0 1-.072-.035.075.075 0 0 0-.046-.011.365.365 0 0 0-.05 0 .35.35 0 0 0-.149-.092zm1.962-2.461a.352.352 0 0 1 .1-.042c.017 0 .041.015.075.046l.111-.013.042.074a.639.639 0 0 1 .2-.025h.316a.911.911 0 0 1 .238.054 1.948 1.948 0 0 1 .23.024.21.21 0 0 0 .175.111l.223-.111.122.026h.2l.078.021.1-.015.1.011.1-.007.088.025.211-.035.162-.011.317-.033.263.022c.038 0 .057-.015.057-.042a.842.842 0 0 0-.032-.121.485.485 0 0 1-.01-.085.3.3 0 0 1-.1-.107 1.06 1.06 0 0 0-.144-.252.354.354 0 0 1-.052-.118.435.435 0 0 0-.057-.128.894.894 0 0 0 .017-.156.4.4 0 0 0-.028-.118l-.125.018a.884.884 0 0 1-.046-.107l-.025-.089-.079-.111-.089-.156-.038-.068a.8.8 0 0 0-.093-.262.289.289 0 0 1-.046-.156l.07-.033a.1.1 0 0 0-.089-.057.358.358 0 0 0-.05 0 2.944 2.944 0 0 0-.05-.1 1.347 1.347 0 0 1-.085-.131l-.023-.138-.053-.093-.054-.124-.118-.145-.063-.206-.061-.107a1.327 1.327 0 0 0-.1-.177.318.318 0 0 0-.122.113.444.444 0 0 0-.057.214h-.021a3.18 3.18 0 0 1-.157.238l-.206.392a.659.659 0 0 0-.074.17.175.175 0 0 0-.083.1.33.33 0 0 1-.191.2l.018.1-.054.026-.118-.011-.028.046.092.057a1.441 1.441 0 0 1-.125.281 1.052 1.052 0 0 1-.316.412c-.023.015-.038.052-.042.114a.346.346 0 0 1-.032.128l-.1.177-.082.089-.043.1a1.378 1.378 0 0 0-.1.179 1.318 1.318 0 0 1-.046.124zm7.044 1.138v-.042c.038-.031.064-.051.078-.06a1.266 1.266 0 0 0 .193-.161.649.649 0 0 1 .113-.088.985.985 0 0 0 .21.134.606.606 0 0 1 .156.1c.045.048.068.083.068.107a.916.916 0 0 1-.068.16.833.833 0 0 1-.28.218q-.057-.054-.076-.075a1.315 1.315 0 0 0-.169-.146.538.538 0 0 1-.09-.116.345.345 0 0 1-.135-.026zm6.367-1.938a.088.088 0 0 1-.053-.074 1.809 1.809 0 0 1 .042-.179 3.352 3.352 0 0 1 .089-.351l.153-.011a.472.472 0 0 0-.05-.138.118.118 0 0 1-.011-.054 1.617 1.617 0 0 1 .09-.287 1.007 1.007 0 0 1 .089-.267l.118-.2a.291.291 0 0 1 .063.015.547.547 0 0 0 .06.017.129.129 0 0 0 .072-.039.117.117 0 0 0 .06-.021.139.139 0 0 0 .025-.057l-.085-.011-.036-.129c0-.023.036-.07.107-.142a.42.42 0 0 0 .057-.071.584.584 0 0 1 .064-.1.363.363 0 0 0 .085-.129l.025-.024a.523.523 0 0 1 .1-.122c.013-.012.062-.045.146-.1l.011.011.1-.05.006-.082.459-.365a.666.666 0 0 1 .107-.065l.1-.064.09-.024a.737.737 0 0 1 .156-.1.261.261 0 0 1 .1.036l.05-.132.146.029.01-.068c.079-.023.131-.04.157-.05a.956.956 0 0 1 .255-.06l.107-.032a1.175 1.175 0 0 0 .138-.032.359.359 0 0 0 .086-.064h.085a.779.779 0 0 0 .179-.046.36.36 0 0 1 .117-.018.386.386 0 0 1 .1.014.109.109 0 0 0 .05.007l.473-.014a.366.366 0 0 1 .249.13c.052.058.083.087.1.087.042 0 .083-.05.122-.15a.372.372 0 0 0 .192.074.437.437 0 0 0 .05 0c.064-.015.1-.021.1-.021l.114.039a5.04 5.04 0 0 1 .6.181v.107a1.047 1.047 0 0 0-.071.075c-.087.092-.146.138-.173.138a.294.294 0 0 1-.118-.046q-.2-.081-.466-.178l-.046-.117a.86.86 0 0 0-.092.021.425.425 0 0 1-.068.018c-.009 0-.086-.026-.23-.075a.184.184 0 0 1-.082-.05.569.569 0 0 1-.032-.05.551.551 0 0 1-.15.046h-.487l-.09-.009a1.128 1.128 0 0 0-.245.059l-.216.026a7.154 7.154 0 0 1-.218.042.518.518 0 0 0-.138.061l-.179.081-.128.089a1.231 1.231 0 0 0-.523.341.861.861 0 0 0-.21.1.227.227 0 0 1-.015.081.862.862 0 0 0-.188.153l-.085.079a.825.825 0 0 1-.138.163.119.119 0 0 1-.061.021.294.294 0 0 1-.042 0 .177.177 0 0 1 .02.05c0 .007-.058.106-.173.3a1.818 1.818 0 0 0-.157.175 4.078 4.078 0 0 0-.082.188l-.074.178-.033.1a1.478 1.478 0 0 0-.124.26 5.3 5.3 0 0 1-.107.445c-.007.033-.046.056-.118.071a.23.23 0 0 0 .083.153.44.44 0 0 0-.036.121.852.852 0 0 0 .029.2v.015a.048.048 0 0 1-.032.046l-.281.107a.038.038 0 0 0-.031.039.072.072 0 0 0 .017.039.662.662 0 0 1 .068.121.3.3 0 0 0 .035.077l.16.131.061.164a.4.4 0 0 1 .032.128h-.021l.021.12.05.015a.229.229 0 0 1 .038.111h.011l.015.092a.572.572 0 0 0 .032.135l.064.128a1.529 1.529 0 0 1 .1.306c0 .023-.023.035-.07.035l.035.089a.3.3 0 0 1 .111.011.5.5 0 0 1 .067.035c.047.055.092.111.136.168l.107.1.081.1a1.438 1.438 0 0 1 .2.121.152.152 0 0 0 .057.124.6.6 0 0 0 .172.086l.159.1.121.057.111.056.117.047.083.06a.251.251 0 0 1 .07.061.144.144 0 0 1 .1-.05s.142.036.411.111h.465a.1.1 0 0 1 .054.022.388.388 0 0 0 .1.039.2.2 0 0 0 .06-.046c.02-.017.033-.025.043-.025h.067l.288-.039a2.379 2.379 0 0 0 .32-.071.85.85 0 0 0 .157.038.405.405 0 0 0 .177-.081l.167-.039a1.336 1.336 0 0 0 .2-.079l.081.018a1.185 1.185 0 0 0 .3-.077c.2-.067.3-.1.309-.107a.394.394 0 0 0 .057-.068l.135-.068a.416.416 0 0 1 .207-.063.31.31 0 0 1 .085.021c0-.062.013-.1.032-.114a.552.552 0 0 1 .12-.06.673.673 0 0 1 .128-.068.166.166 0 0 1 .074.032.681.681 0 0 1-.074.293.428.428 0 0 0-.05.138.112.112 0 0 1-.042.053 1.676 1.676 0 0 1-.3.064.9.9 0 0 1-.167.06c-.017.005-.08.021-.192.046l-.156.032-.167.046-.15.021a1.526 1.526 0 0 1-.256.068h-.257v.022c0 .045-.028.067-.085.067h-.029l-.07-.007-.039.007-.438.1a2.195 2.195 0 0 1-.319.035l-.271.015h-.015a.108.108 0 0 1-.089.053c-.109 0-.2.007-.28.007a.767.767 0 0 1-.239-.064.243.243 0 0 0-.089-.015.131.131 0 0 0-.1.064l-.175-.007c-.042-.066-.083-.1-.12-.1H342.872l-.064.007a.759.759 0 0 1-.338-.111 3.266 3.266 0 0 0-.342-.164c-.2-.124-.326-.2-.391-.23l-.024-.064h.078v-.05c0-.079-.029-.122-.089-.129-.036.042-.066.061-.09.061a.488.488 0 0 1-.124-.089l-.242-.167-.075-.1-.036-.038-.124-.185a2.086 2.086 0 0 1-.369-.847l.071-.042v-.067l-.078-.053a.358.358 0 0 0-.032-.153l-.021-.075a.355.355 0 0 1-.042-.078v-.136l-.015-.156.022-.071a.543.543 0 0 1-.036-.134.266.266 0 0 1 .054-.157.651.651 0 0 0 .029-.132zm8.7 1.938v-.042c.037-.031.064-.051.077-.06a1.316 1.316 0 0 0 .193-.161.616.616 0 0 1 .112-.088 1 1 0 0 0 .21.134.626.626 0 0 1 .157.1c.045.048.068.083.068.107a.887.887 0 0 1-.068.16.847.847 0 0 1-.281.218q-.057-.054-.076-.075a1.314 1.314 0 0 0-.169-.146.557.557 0 0 1-.09-.116.341.341 0 0 1-.135-.031z" transform="translate(-152.458 -337.828)" style="stroke:#a79684;stroke-miterlimit:22.926;stroke-width:.5px;fill:#a79684"/>
</svg>
